<svg xmlns="http://www.w3.org/2000/svg" viewBox="0 0 500 500"><g id="freepik--background-complete--inject-17"><path d="M395.66,144.41H319s3.81-5,8-5.58c0,0,8.17-24.33,21.85-24.5,12.72-.16,17.82,15,17.82,15s5.89-6.78,11.52-3.68,8.82,12,8.82,12S393.37,141,395.66,144.41Z" style="fill:#ebebeb"></path><path d="M49.91,130.13h96.93s0-6.2-13.35-7.41c0,0-12.19-27.07-30.8-23.43-11.6,2.26-17.52,18.18-17.52,18.18s-8.76-12.53-15.77-10.1-11.17,15.75-11.17,15.75S51,126.63,49.91,130.13Z" style="fill:#ebebeb"></path><path d="M168,70.46h65.91s-6.22-5.79-9-5.79-10.83-19.44-21.14-18.61S188,61.36,188,61.36,175.46,57.43,168,70.46Z" style="fill:#ebebeb"></path><path d="M191.27,159.06h56.36s-2.8-3.65-5.89-4.1c0,0-6-17.89-16.07-18-9.35-.12-13.1,11-13.1,11s-4.34-5-8.48-2.71-6.48,8.81-6.48,8.81S193,156.55,191.27,159.06Z" style="fill:#ebebeb"></path><path d="M393.72,98.45h56.37s-2.81-3.64-5.9-4.1c0,0-6-17.89-16.06-18-9.36-.12-13.11,11-13.11,11s-4.33-5-8.47-2.7-6.48,8.81-6.48,8.81S395.41,96,393.72,98.45Z" style="fill:#ebebeb"></path><polygon points="448.13 195.67 448.13 309.13 217.8 309.13 217.8 216.68 237.68 216.68 237.68 240.82 242.79 240.82 242.79 198.63 268.06 198.63 268.06 238.67 271.41 238.67 271.41 187.89 293.37 187.89 293.37 201.83 304.63 201.83 304.63 219.17 308.05 219.17 308.05 208.26 328.01 208.26 328.01 240.81 333.85 240.81 333.85 214.36 352.11 214.36 352.11 194.26 364.53 194.26 364.53 182.81 378.89 182.81 378.89 233.57 383.73 233.57 383.73 212.39 407.39 212.39 407.39 242.71 410.66 242.71 410.66 217.96 434.66 217.96 434.66 195.67 448.13 195.67" style="fill:#ebebeb"></polygon><rect x="220.24" y="219.72" width="3.36" height="4.61" style="fill:#fff"></rect><rect x="226.06" y="219.72" width="3.36" height="4.61" style="fill:#fff"></rect><rect x="231.89" y="219.72" width="3.36" height="4.61" style="fill:#fff"></rect><rect x="220.24" y="226.66" width="3.36" height="4.61" style="fill:#fff"></rect><rect x="226.06" y="226.66" width="3.36" height="4.61" style="fill:#fff"></rect><rect x="231.89" y="226.66" width="3.36" height="4.61" style="fill:#fff"></rect><rect x="220.24" y="233.6" width="3.36" height="4.61" style="fill:#fff"></rect><rect x="226.06" y="233.6" width="3.36" height="4.61" style="fill:#fff"></rect><rect x="231.89" y="233.6" width="3.36" height="4.61" style="fill:#fff"></rect><rect x="220.24" y="240.55" width="3.36" height="4.61" style="fill:#fff"></rect><rect x="226.06" y="240.55" width="3.36" height="4.61" style="fill:#fff"></rect><rect x="231.89" y="240.55" width="3.36" height="4.61" style="fill:#fff"></rect><rect x="336.66" y="217.65" width="3.36" height="3.85" style="fill:#fff"></rect><rect x="342.49" y="217.65" width="3.36" height="3.85" style="fill:#fff"></rect><rect x="348.31" y="217.65" width="3.36" height="3.85" style="fill:#fff"></rect><rect x="336.66" y="223.44" width="3.36" height="3.85" style="fill:#fff"></rect><rect x="342.49" y="223.44" width="3.36" height="3.85" style="fill:#fff"></rect><rect x="348.31" y="223.44" width="3.36" height="3.85" style="fill:#fff"></rect><rect x="336.66" y="229.24" width="3.36" height="3.85" style="fill:#fff"></rect><rect x="342.49" y="229.24" width="3.36" height="3.85" style="fill:#fff"></rect><rect x="348.31" y="229.24" width="3.36" height="3.85" style="fill:#fff"></rect><rect x="336.66" y="235.03" width="3.36" height="3.85" style="fill:#fff"></rect><rect x="342.49" y="235.03" width="3.36" height="3.85" style="fill:#fff"></rect><rect x="348.31" y="235.03" width="3.36" height="3.85" style="fill:#fff"></rect><rect x="336.66" y="240.96" width="3.36" height="3.85" style="fill:#fff"></rect><rect x="342.49" y="240.96" width="3.36" height="3.85" style="fill:#fff"></rect><rect x="348.31" y="240.96" width="3.36" height="3.85" style="fill:#fff"></rect><rect x="336.66" y="246.9" width="3.36" height="3.85" style="fill:#fff"></rect><rect x="342.49" y="246.9" width="3.36" height="3.85" style="fill:#fff"></rect><rect x="348.31" y="246.9" width="3.36" height="3.85" style="fill:#fff"></rect><rect x="336.66" y="252.84" width="3.36" height="3.85" style="fill:#fff"></rect><rect x="342.49" y="252.84" width="3.36" height="3.85" style="fill:#fff"></rect><rect x="348.31" y="252.84" width="3.36" height="3.85" style="fill:#fff"></rect><rect x="336.66" y="258.77" width="3.36" height="3.85" style="fill:#fff"></rect><rect x="342.49" y="258.77" width="3.36" height="3.85" style="fill:#fff"></rect><rect x="348.31" y="258.77" width="3.36" height="3.85" style="fill:#fff"></rect><rect x="245.66" y="201.59" width="19.36" height="2.89" style="fill:#fff"></rect><rect x="245.66" y="207.19" width="19.36" height="2.89" style="fill:#fff"></rect><rect x="245.66" y="212.79" width="19.36" height="2.89" style="fill:#fff"></rect><rect x="245.66" y="218.39" width="19.36" height="2.89" style="fill:#fff"></rect><rect x="245.66" y="223.99" width="19.36" height="2.89" style="fill:#fff"></rect><rect x="245.66" y="229.59" width="19.36" height="2.89" style="fill:#fff"></rect><rect x="245.66" y="235.19" width="19.36" height="2.89" style="fill:#fff"></rect><rect x="245.66" y="240.79" width="19.36" height="2.89" style="fill:#fff"></rect><rect x="386.59" y="215.08" width="17.8" height="2.89" style="fill:#fff"></rect><rect x="386.59" y="220.68" width="17.8" height="2.89" style="fill:#fff"></rect><rect x="386.59" y="226.28" width="17.8" height="2.89" style="fill:#fff"></rect><rect x="386.59" y="231.88" width="17.8" height="2.89" style="fill:#fff"></rect><rect x="386.59" y="237.48" width="17.8" height="2.89" style="fill:#fff"></rect><rect x="386.59" y="243.08" width="17.8" height="2.89" style="fill:#fff"></rect><rect x="386.59" y="248.68" width="17.8" height="2.89" style="fill:#fff"></rect><rect x="386.59" y="254.28" width="17.8" height="2.89" style="fill:#fff"></rect><rect x="386.59" y="259.6" width="17.8" height="2.89" style="fill:#fff"></rect><rect x="386.59" y="264.92" width="17.8" height="2.89" style="fill:#fff"></rect><rect x="386.59" y="270.24" width="17.8" height="2.89" style="fill:#fff"></rect><rect x="386.59" y="275.57" width="17.8" height="2.89" style="fill:#fff"></rect><rect x="386.59" y="280.89" width="17.8" height="2.89" style="fill:#fff"></rect><rect x="414.36" y="221.85" width="18.8" height="2.89" style="fill:#fff"></rect><rect x="414.36" y="227.45" width="18.8" height="2.89" style="fill:#fff"></rect><rect x="414.36" y="233.05" width="18.8" height="2.89" style="fill:#fff"></rect><rect x="414.36" y="238.65" width="18.8" height="2.89" style="fill:#fff"></rect><rect x="414.36" y="244.25" width="18.8" height="2.89" style="fill:#fff"></rect><rect x="414.36" y="249.85" width="18.8" height="2.89" style="fill:#fff"></rect><rect x="414.36" y="255.45" width="18.8" height="2.89" style="fill:#fff"></rect><rect x="414.36" y="261.05" width="18.8" height="2.89" style="fill:#fff"></rect><rect x="414.36" y="266.06" width="18.8" height="2.89" style="fill:#fff"></rect><rect x="414.36" y="271.07" width="18.8" height="2.89" style="fill:#fff"></rect><rect x="414.36" y="276.08" width="18.8" height="2.89" style="fill:#fff"></rect><rect x="313.89" y="210.88" width="5.98" height="2.79" style="fill:#fff"></rect><rect x="313.89" y="216.29" width="5.98" height="2.79" style="fill:#fff"></rect><rect x="313.89" y="221.69" width="5.98" height="2.79" style="fill:#fff"></rect><rect x="313.89" y="227.1" width="5.98" height="2.79" style="fill:#fff"></rect><rect x="313.89" y="232.51" width="5.98" height="2.79" style="fill:#fff"></rect><rect x="313.89" y="237.92" width="5.98" height="2.79" style="fill:#fff"></rect><rect x="313.89" y="243.33" width="5.98" height="2.79" style="fill:#fff"></rect><rect x="313.89" y="248.73" width="5.98" height="2.79" style="fill:#fff"></rect><rect x="322.02" y="210.88" width="5.98" height="2.79" style="fill:#fff"></rect><rect x="322.02" y="216.29" width="5.98" height="2.79" style="fill:#fff"></rect><rect x="322.02" y="221.69" width="5.98" height="2.79" style="fill:#fff"></rect><rect x="322.02" y="227.1" width="5.98" height="2.79" style="fill:#fff"></rect><rect x="322.02" y="232.51" width="5.98" height="2.79" style="fill:#fff"></rect><rect x="322.02" y="237.92" width="5.98" height="2.79" style="fill:#fff"></rect><rect x="322.02" y="243.33" width="5.98" height="2.79" style="fill:#fff"></rect><rect x="322.02" y="248.73" width="5.98" height="2.79" style="fill:#fff"></rect><rect x="274.74" y="190.82" width="6.23" height="4.4" style="fill:#fff"></rect><rect x="284.02" y="190.82" width="6.23" height="4.4" style="fill:#fff"></rect><rect x="274.74" y="197.27" width="6.23" height="4.4" style="fill:#fff"></rect><rect x="284.02" y="197.27" width="6.23" height="4.4" style="fill:#fff"></rect><rect x="274.74" y="203.73" width="6.23" height="4.4" style="fill:#fff"></rect><rect x="284.02" y="203.73" width="6.23" height="4.4" style="fill:#fff"></rect><rect x="274.74" y="210.19" width="6.23" height="4.4" style="fill:#fff"></rect><rect x="284.02" y="210.19" width="6.23" height="4.4" style="fill:#fff"></rect><rect x="274.74" y="216.64" width="6.23" height="4.4" style="fill:#fff"></rect><rect x="284.02" y="216.64" width="6.23" height="4.4" style="fill:#fff"></rect><rect x="274.74" y="223.1" width="6.23" height="4.4" style="fill:#fff"></rect><rect x="284.02" y="223.1" width="6.23" height="4.4" style="fill:#fff"></rect><rect x="274.74" y="229.56" width="6.23" height="4.4" style="fill:#fff"></rect><rect x="284.02" y="229.56" width="6.23" height="4.4" style="fill:#fff"></rect><rect x="274.74" y="236.01" width="6.23" height="4.4" style="fill:#fff"></rect><rect x="284.02" y="236.01" width="6.23" height="4.4" style="fill:#fff"></rect><rect x="295.53" y="203.73" width="6.23" height="4.4" style="fill:#fff"></rect><rect x="295.53" y="210.19" width="6.23" height="4.4" style="fill:#fff"></rect><rect x="295.53" y="216.64" width="6.23" height="4.4" style="fill:#fff"></rect><rect x="295.53" y="223.1" width="6.23" height="4.4" style="fill:#fff"></rect><rect x="295.53" y="229.56" width="6.23" height="4.4" style="fill:#fff"></rect><rect x="295.53" y="236.01" width="6.23" height="4.4" style="fill:#fff"></rect><rect x="274.74" y="242.39" width="6.23" height="4.4" style="fill:#fff"></rect><rect x="284.02" y="242.39" width="6.23" height="4.4" style="fill:#fff"></rect><rect x="295.53" y="242.39" width="6.23" height="4.4" style="fill:#fff"></rect><rect x="274.74" y="248.77" width="6.23" height="4.4" style="fill:#fff"></rect><rect x="284.02" y="248.77" width="6.23" height="4.4" style="fill:#fff"></rect><rect x="295.53" y="248.77" width="6.23" height="4.4" style="fill:#fff"></rect><rect x="274.74" y="255.15" width="6.23" height="4.4" style="fill:#fff"></rect><rect x="284.02" y="255.15" width="6.23" height="4.4" style="fill:#fff"></rect><rect x="295.53" y="255.15" width="6.23" height="4.4" style="fill:#fff"></rect><rect x="274.74" y="261.53" width="6.23" height="4.4" style="fill:#fff"></rect><rect x="284.02" y="261.53" width="6.23" height="4.4" style="fill:#fff"></rect><rect x="295.53" y="261.53" width="6.23" height="4.4" style="fill:#fff"></rect><rect x="274.74" y="267.91" width="6.23" height="4.4" style="fill:#fff"></rect><rect x="284.02" y="267.91" width="6.23" height="4.4" style="fill:#fff"></rect><rect x="295.53" y="267.91" width="6.23" height="4.4" style="fill:#fff"></rect><rect x="354.65" y="197.09" width="3.36" height="3.85" style="fill:#fff"></rect><rect x="360.48" y="197.09" width="3.36" height="3.85" style="fill:#fff"></rect><rect x="354.65" y="202.88" width="3.36" height="3.85" style="fill:#fff"></rect><rect x="360.48" y="202.88" width="3.36" height="3.85" style="fill:#fff"></rect><rect x="354.65" y="208.67" width="3.36" height="3.85" style="fill:#fff"></rect><rect x="360.48" y="208.67" width="3.36" height="3.85" style="fill:#fff"></rect><rect x="354.65" y="214.47" width="3.36" height="3.85" style="fill:#fff"></rect><rect x="360.48" y="214.47" width="3.36" height="3.85" style="fill:#fff"></rect><rect x="354.65" y="220.4" width="3.36" height="3.85" style="fill:#fff"></rect><rect x="360.48" y="220.4" width="3.36" height="3.85" style="fill:#fff"></rect><rect x="354.65" y="226.34" width="3.36" height="3.85" style="fill:#fff"></rect><rect x="360.48" y="226.34" width="3.36" height="3.85" style="fill:#fff"></rect><rect x="354.65" y="232.27" width="3.36" height="3.85" style="fill:#fff"></rect><rect x="360.48" y="232.27" width="3.36" height="3.85" style="fill:#fff"></rect><rect x="354.65" y="238.21" width="3.36" height="3.85" style="fill:#fff"></rect><rect x="360.48" y="238.21" width="3.36" height="3.85" style="fill:#fff"></rect><rect x="354.65" y="244.21" width="3.36" height="3.85" style="fill:#fff"></rect><rect x="360.48" y="244.21" width="3.36" height="3.85" style="fill:#fff"></rect><rect x="354.65" y="250.21" width="3.36" height="3.85" style="fill:#fff"></rect><rect x="360.48" y="250.21" width="3.36" height="3.85" style="fill:#fff"></rect><rect x="354.65" y="256.21" width="3.36" height="3.85" style="fill:#fff"></rect><rect x="360.48" y="256.21" width="3.36" height="3.85" style="fill:#fff"></rect><rect x="354.65" y="262.21" width="3.36" height="3.85" style="fill:#fff"></rect><rect x="360.48" y="262.21" width="3.36" height="3.85" style="fill:#fff"></rect><rect x="436.77" y="197.72" width="3.36" height="4.54" style="fill:#fff"></rect><rect x="442.59" y="197.72" width="3.36" height="4.54" style="fill:#fff"></rect><rect x="436.77" y="204.54" width="3.36" height="4.54" style="fill:#fff"></rect><rect x="442.59" y="204.54" width="3.36" height="4.54" style="fill:#fff"></rect><rect x="436.77" y="211.36" width="3.36" height="4.54" style="fill:#fff"></rect><rect x="442.59" y="211.36" width="3.36" height="4.54" style="fill:#fff"></rect><rect x="436.77" y="218.19" width="3.36" height="4.54" style="fill:#fff"></rect><rect x="442.59" y="218.19" width="3.36" height="4.54" style="fill:#fff"></rect><rect x="436.77" y="225.18" width="3.36" height="4.54" style="fill:#fff"></rect><rect x="442.59" y="225.18" width="3.36" height="4.54" style="fill:#fff"></rect><rect x="436.77" y="232.17" width="3.36" height="4.54" style="fill:#fff"></rect><rect x="442.59" y="232.17" width="3.36" height="4.54" style="fill:#fff"></rect><rect x="436.77" y="239.17" width="3.36" height="4.54" style="fill:#fff"></rect><rect x="442.59" y="239.17" width="3.36" height="4.54" style="fill:#fff"></rect><rect x="436.77" y="246.16" width="3.36" height="4.54" style="fill:#fff"></rect><rect x="442.59" y="246.16" width="3.36" height="4.54" style="fill:#fff"></rect><rect x="436.77" y="253.23" width="3.36" height="4.54" style="fill:#fff"></rect><rect x="442.59" y="253.23" width="3.36" height="4.54" style="fill:#fff"></rect><rect x="436.77" y="260.3" width="3.36" height="4.54" style="fill:#fff"></rect><rect x="442.59" y="260.3" width="3.36" height="4.54" style="fill:#fff"></rect><rect x="436.77" y="267.36" width="3.36" height="4.54" style="fill:#fff"></rect><rect x="442.59" y="267.36" width="3.36" height="4.54" style="fill:#fff"></rect><rect x="436.77" y="274.43" width="3.36" height="4.54" style="fill:#fff"></rect><rect x="442.59" y="274.43" width="3.36" height="4.54" style="fill:#fff"></rect><rect x="367.12" y="197.09" width="3.36" height="3.85" style="fill:#fff"></rect><rect x="372.94" y="197.09" width="3.36" height="3.85" style="fill:#fff"></rect><rect x="367.12" y="191.15" width="3.36" height="3.85" style="fill:#fff"></rect><rect x="372.94" y="191.15" width="3.36" height="3.85" style="fill:#fff"></rect><rect x="367.12" y="185.21" width="3.36" height="3.85" style="fill:#fff"></rect><rect x="372.94" y="185.21" width="3.36" height="3.85" style="fill:#fff"></rect><rect x="367.12" y="202.88" width="3.36" height="3.85" style="fill:#fff"></rect><rect x="372.94" y="202.88" width="3.36" height="3.85" style="fill:#fff"></rect><rect x="367.12" y="208.67" width="3.36" height="3.85" style="fill:#fff"></rect><rect x="372.94" y="208.67" width="3.36" height="3.85" style="fill:#fff"></rect><rect x="367.12" y="214.47" width="3.36" height="3.85" style="fill:#fff"></rect><rect x="372.94" y="214.47" width="3.36" height="3.85" style="fill:#fff"></rect><rect x="367.12" y="220.4" width="3.36" height="3.85" style="fill:#fff"></rect><rect x="372.94" y="220.4" width="3.36" height="3.85" style="fill:#fff"></rect><rect x="367.12" y="226.34" width="3.36" height="3.85" style="fill:#fff"></rect><rect x="372.94" y="226.34" width="3.36" height="3.85" style="fill:#fff"></rect><rect x="367.12" y="232.27" width="3.36" height="3.85" style="fill:#fff"></rect><rect x="372.94" y="232.27" width="3.36" height="3.85" style="fill:#fff"></rect><rect x="367.12" y="238.21" width="3.36" height="3.85" style="fill:#fff"></rect><rect x="372.94" y="238.21" width="3.36" height="3.85" style="fill:#fff"></rect><rect x="367.12" y="244.21" width="3.36" height="3.85" style="fill:#fff"></rect><rect x="372.94" y="244.21" width="3.36" height="3.85" style="fill:#fff"></rect><rect x="367.12" y="250.21" width="3.36" height="3.85" style="fill:#fff"></rect><rect x="372.94" y="250.21" width="3.36" height="3.85" style="fill:#fff"></rect><rect x="367.12" y="256.21" width="3.36" height="3.85" style="fill:#fff"></rect><rect x="372.94" y="256.21" width="3.36" height="3.85" style="fill:#fff"></rect><rect x="367.12" y="262.21" width="3.36" height="3.85" style="fill:#fff"></rect><rect x="372.94" y="262.21" width="3.36" height="3.85" style="fill:#fff"></rect><polygon points="217.8 309.13 51.87 309.13 51.87 206.56 71.74 206.56 71.74 230.7 76.86 230.7 76.86 217.03 102.13 217.03 102.13 238.67 105.47 238.67 105.47 187.89 127.44 187.89 127.44 201.83 138.7 201.83 138.7 219.17 142.11 219.17 142.11 208.26 162.08 208.26 162.08 240.81 167.92 240.81 167.92 214.36 186.18 214.36 186.18 194.26 198.59 194.26 212.96 194.32 212.96 233.57 217.79 233.57 217.8 309.13" style="fill:#ebebeb"></polygon><rect x="54.3" y="209.6" width="3.36" height="4.61" style="fill:#fff"></rect><rect x="60.13" y="209.6" width="3.36" height="4.61" style="fill:#fff"></rect><rect x="65.96" y="209.6" width="3.36" height="4.61" style="fill:#fff"></rect><rect x="54.3" y="216.54" width="3.36" height="4.61" style="fill:#fff"></rect><rect x="60.13" y="216.54" width="3.36" height="4.61" style="fill:#fff"></rect><rect x="65.96" y="216.54" width="3.36" height="4.61" style="fill:#fff"></rect><rect x="54.3" y="223.48" width="3.36" height="4.61" style="fill:#fff"></rect><rect x="60.13" y="223.48" width="3.36" height="4.61" style="fill:#fff"></rect><rect x="65.96" y="223.48" width="3.36" height="4.61" style="fill:#fff"></rect><rect x="54.3" y="230.43" width="3.36" height="4.61" style="fill:#fff"></rect><rect x="60.13" y="230.43" width="3.36" height="4.61" style="fill:#fff"></rect><rect x="65.96" y="230.43" width="3.36" height="4.61" style="fill:#fff"></rect><rect x="170.72" y="217.65" width="3.36" height="3.85" style="fill:#fff"></rect><rect x="176.55" y="217.65" width="3.36" height="3.85" style="fill:#fff"></rect><rect x="182.38" y="217.65" width="3.36" height="3.85" style="fill:#fff"></rect><rect x="170.72" y="223.44" width="3.36" height="3.85" style="fill:#fff"></rect><rect x="176.55" y="223.44" width="3.36" height="3.85" style="fill:#fff"></rect><rect x="182.38" y="223.44" width="3.36" height="3.85" style="fill:#fff"></rect><rect x="170.72" y="229.24" width="3.36" height="3.85" style="fill:#fff"></rect><rect x="176.55" y="229.24" width="3.36" height="3.85" style="fill:#fff"></rect><rect x="182.38" y="229.24" width="3.36" height="3.85" style="fill:#fff"></rect><rect x="170.72" y="235.03" width="3.36" height="3.85" style="fill:#fff"></rect><rect x="176.55" y="235.03" width="3.36" height="3.85" style="fill:#fff"></rect><rect x="182.38" y="235.03" width="3.36" height="3.85" style="fill:#fff"></rect><rect x="170.72" y="240.96" width="3.36" height="3.85" style="fill:#fff"></rect><rect x="176.55" y="240.96" width="3.36" height="3.85" style="fill:#fff"></rect><rect x="182.38" y="240.96" width="3.36" height="3.85" style="fill:#fff"></rect><rect x="170.72" y="246.9" width="3.36" height="3.85" style="fill:#fff"></rect><rect x="176.55" y="246.9" width="3.36" height="3.85" style="fill:#fff"></rect><rect x="182.38" y="246.9" width="3.36" height="3.85" style="fill:#fff"></rect><rect x="170.72" y="252.84" width="3.36" height="3.85" style="fill:#fff"></rect><rect x="176.55" y="252.84" width="3.36" height="3.85" style="fill:#fff"></rect><rect x="182.38" y="252.84" width="3.36" height="3.85" style="fill:#fff"></rect><rect x="170.72" y="258.77" width="3.36" height="3.85" style="fill:#fff"></rect><rect x="176.55" y="258.77" width="3.36" height="3.85" style="fill:#fff"></rect><rect x="182.38" y="258.77" width="3.36" height="3.85" style="fill:#fff"></rect><rect x="79.72" y="219.99" width="19.36" height="2.89" style="fill:#fff"></rect><rect x="79.72" y="225.59" width="19.36" height="2.89" style="fill:#fff"></rect><rect x="79.72" y="231.19" width="19.36" height="2.89" style="fill:#fff"></rect><rect x="79.72" y="236.79" width="19.36" height="2.89" style="fill:#fff"></rect><rect x="79.72" y="242.39" width="19.36" height="2.89" style="fill:#fff"></rect><rect x="79.72" y="247.99" width="19.36" height="2.89" style="fill:#fff"></rect><rect x="79.72" y="253.59" width="19.36" height="2.89" style="fill:#fff"></rect><rect x="79.72" y="259.19" width="19.36" height="2.89" style="fill:#fff"></rect><rect x="147.95" y="210.88" width="5.98" height="2.79" style="fill:#fff"></rect><rect x="147.95" y="216.29" width="5.98" height="2.79" style="fill:#fff"></rect><rect x="147.95" y="221.69" width="5.98" height="2.79" style="fill:#fff"></rect><rect x="147.95" y="227.1" width="5.98" height="2.79" style="fill:#fff"></rect><rect x="147.95" y="232.51" width="5.98" height="2.79" style="fill:#fff"></rect><rect x="147.95" y="237.92" width="5.98" height="2.79" style="fill:#fff"></rect><rect x="147.95" y="243.33" width="5.98" height="2.79" style="fill:#fff"></rect><rect x="147.95" y="248.73" width="5.98" height="2.79" style="fill:#fff"></rect><rect x="156.08" y="210.88" width="5.98" height="2.79" style="fill:#fff"></rect><rect x="156.08" y="216.29" width="5.98" height="2.79" style="fill:#fff"></rect><rect x="156.08" y="221.69" width="5.98" height="2.79" style="fill:#fff"></rect><rect x="156.08" y="227.1" width="5.98" height="2.79" style="fill:#fff"></rect><rect x="156.08" y="232.51" width="5.98" height="2.79" style="fill:#fff"></rect><rect x="156.08" y="237.92" width="5.98" height="2.79" style="fill:#fff"></rect><rect x="156.08" y="243.33" width="5.98" height="2.79" style="fill:#fff"></rect><rect x="156.08" y="248.73" width="5.98" height="2.79" style="fill:#fff"></rect><rect x="108.8" y="190.82" width="6.23" height="4.4" style="fill:#fff"></rect><rect x="118.09" y="190.82" width="6.23" height="4.4" style="fill:#fff"></rect><rect x="108.8" y="197.27" width="6.23" height="4.4" style="fill:#fff"></rect><rect x="118.09" y="197.27" width="6.23" height="4.4" style="fill:#fff"></rect><rect x="108.8" y="203.73" width="6.23" height="4.4" style="fill:#fff"></rect><rect x="118.09" y="203.73" width="6.23" height="4.4" style="fill:#fff"></rect><rect x="108.8" y="210.19" width="6.23" height="4.4" style="fill:#fff"></rect><rect x="118.09" y="210.19" width="6.23" height="4.4" style="fill:#fff"></rect><rect x="108.8" y="216.64" width="6.23" height="4.4" style="fill:#fff"></rect><rect x="118.09" y="216.64" width="6.23" height="4.4" style="fill:#fff"></rect><rect x="108.8" y="223.1" width="6.23" height="4.4" style="fill:#fff"></rect><rect x="118.09" y="223.1" width="6.23" height="4.4" style="fill:#fff"></rect><rect x="108.8" y="229.56" width="6.23" height="4.4" style="fill:#fff"></rect><rect x="118.09" y="229.56" width="6.23" height="4.4" style="fill:#fff"></rect><rect x="108.8" y="236.01" width="6.23" height="4.4" style="fill:#fff"></rect><rect x="118.09" y="236.01" width="6.23" height="4.4" style="fill:#fff"></rect><rect x="129.6" y="203.73" width="6.23" height="4.4" style="fill:#fff"></rect><rect x="129.6" y="210.19" width="6.23" height="4.4" style="fill:#fff"></rect><rect x="129.6" y="216.64" width="6.23" height="4.4" style="fill:#fff"></rect><rect x="129.6" y="223.1" width="6.23" height="4.4" style="fill:#fff"></rect><rect x="129.6" y="229.56" width="6.23" height="4.4" style="fill:#fff"></rect><rect x="129.6" y="236.01" width="6.23" height="4.4" style="fill:#fff"></rect><rect x="108.8" y="242.39" width="6.23" height="4.4" style="fill:#fff"></rect><rect x="118.09" y="242.39" width="6.23" height="4.4" style="fill:#fff"></rect><rect x="129.6" y="242.39" width="6.23" height="4.4" style="fill:#fff"></rect><rect x="108.8" y="248.77" width="6.23" height="4.4" style="fill:#fff"></rect><rect x="118.09" y="248.77" width="6.23" height="4.4" style="fill:#fff"></rect><rect x="129.6" y="248.77" width="6.23" height="4.4" style="fill:#fff"></rect><rect x="108.8" y="255.15" width="6.23" height="4.4" style="fill:#fff"></rect><rect x="118.09" y="255.15" width="6.23" height="4.4" style="fill:#fff"></rect><rect x="129.6" y="255.15" width="6.23" height="4.4" style="fill:#fff"></rect><rect x="108.8" y="261.53" width="6.23" height="4.4" style="fill:#fff"></rect><rect x="118.09" y="261.53" width="6.23" height="4.4" style="fill:#fff"></rect><rect x="129.6" y="261.53" width="6.23" height="4.4" style="fill:#fff"></rect><rect x="108.8" y="267.91" width="6.23" height="4.4" style="fill:#fff"></rect><rect x="118.09" y="267.91" width="6.23" height="4.4" style="fill:#fff"></rect><rect x="129.6" y="267.91" width="6.23" height="4.4" style="fill:#fff"></rect><rect x="188.72" y="197.09" width="3.36" height="3.85" style="fill:#fff"></rect><rect x="194.54" y="197.09" width="3.36" height="3.85" style="fill:#fff"></rect><rect x="188.72" y="202.88" width="3.36" height="3.85" style="fill:#fff"></rect><rect x="194.54" y="202.88" width="3.36" height="3.85" style="fill:#fff"></rect><rect x="188.72" y="208.67" width="3.36" height="3.85" style="fill:#fff"></rect><rect x="194.54" y="208.67" width="3.36" height="3.85" style="fill:#fff"></rect><rect x="188.72" y="214.47" width="3.36" height="3.85" style="fill:#fff"></rect><rect x="194.54" y="214.47" width="3.36" height="3.85" style="fill:#fff"></rect><rect x="188.72" y="220.4" width="3.36" height="3.85" style="fill:#fff"></rect><rect x="194.54" y="220.4" width="3.36" height="3.85" style="fill:#fff"></rect><rect x="188.72" y="226.34" width="3.36" height="3.85" style="fill:#fff"></rect><rect x="194.54" y="226.34" width="3.36" height="3.85" style="fill:#fff"></rect><rect x="188.72" y="232.27" width="3.36" height="3.85" style="fill:#fff"></rect><rect x="194.54" y="232.27" width="3.36" height="3.85" style="fill:#fff"></rect><rect x="188.72" y="238.21" width="3.36" height="3.85" style="fill:#fff"></rect><rect x="194.54" y="238.21" width="3.36" height="3.85" style="fill:#fff"></rect><rect x="188.72" y="244.21" width="3.36" height="3.85" style="fill:#fff"></rect><rect x="194.54" y="244.21" width="3.36" height="3.85" style="fill:#fff"></rect><rect x="188.72" y="250.21" width="3.36" height="3.85" style="fill:#fff"></rect><rect x="194.54" y="250.21" width="3.36" height="3.85" style="fill:#fff"></rect><rect x="188.72" y="256.21" width="3.36" height="3.85" style="fill:#fff"></rect><rect x="194.54" y="256.21" width="3.36" height="3.85" style="fill:#fff"></rect><rect x="188.72" y="262.21" width="3.36" height="3.85" style="fill:#fff"></rect><rect x="194.54" y="262.21" width="3.36" height="3.85" style="fill:#fff"></rect><rect x="201.18" y="197.09" width="3.36" height="3.85" style="fill:#fff"></rect><rect x="207.01" y="197.09" width="3.36" height="3.85" style="fill:#fff"></rect><rect x="201.18" y="202.88" width="3.36" height="3.85" style="fill:#fff"></rect><rect x="207.01" y="202.88" width="3.36" height="3.85" style="fill:#fff"></rect><rect x="201.18" y="208.67" width="3.36" height="3.85" style="fill:#fff"></rect><rect x="207.01" y="208.67" width="3.36" height="3.85" style="fill:#fff"></rect><rect x="201.18" y="214.47" width="3.36" height="3.85" style="fill:#fff"></rect><rect x="207.01" y="214.47" width="3.36" height="3.85" style="fill:#fff"></rect><rect x="201.18" y="220.4" width="3.36" height="3.85" style="fill:#fff"></rect><rect x="207.01" y="220.4" width="3.36" height="3.85" style="fill:#fff"></rect><rect x="201.18" y="226.34" width="3.36" height="3.85" style="fill:#fff"></rect><rect x="207.01" y="226.34" width="3.36" height="3.85" style="fill:#fff"></rect><rect x="201.18" y="232.27" width="3.36" height="3.85" style="fill:#fff"></rect><rect x="207.01" y="232.27" width="3.36" height="3.85" style="fill:#fff"></rect><rect x="201.18" y="238.21" width="3.36" height="3.85" style="fill:#fff"></rect><rect x="207.01" y="238.21" width="3.36" height="3.85" style="fill:#fff"></rect><rect x="201.18" y="244.21" width="3.36" height="3.85" style="fill:#fff"></rect><rect x="207.01" y="244.21" width="3.36" height="3.85" style="fill:#fff"></rect><rect x="201.18" y="250.21" width="3.36" height="3.85" style="fill:#fff"></rect><rect x="207.01" y="250.21" width="3.36" height="3.85" style="fill:#fff"></rect><rect x="201.18" y="256.21" width="3.36" height="3.85" style="fill:#fff"></rect><rect x="207.01" y="256.21" width="3.36" height="3.85" style="fill:#fff"></rect><rect x="201.18" y="262.21" width="3.36" height="3.85" style="fill:#fff"></rect><rect x="207.01" y="262.21" width="3.36" height="3.85" style="fill:#fff"></rect></g><g id="freepik--Shadows--inject-17"><ellipse cx="168.85" cy="420.54" rx="123.04" ry="14.24" style="fill:#ebebeb"></ellipse><path d="M454.18,437.86c0,7.87-55.08,14.24-123,14.24s-123-6.37-123-14.24,55.09-14.24,123-14.24S454.18,430,454.18,437.86Z" style="fill:#ebebeb"></path></g><g id="freepik--Trees--inject-17"><path d="M60.14,269.79s11.24,24.94-7.1,25S46.56,269,46.56,269s-4.25-1.86.66-15.79,7.11-13.93,9.16-13.93c2.58,0,5,6,3.24,15.28C59.62,254.51,66.08,266.05,60.14,269.79Z" style="fill:#37474f"></path><polygon points="51.43 311.31 53.16 273.71 54.97 311.3 51.43 311.31" style="fill:#263238"></polygon><polygon points="52.46 289.47 59.11 281.68 53.9 290.5 52.46 289.47" style="fill:#263238"></polygon><path d="M292.79,272.47s-5.23-2.07-9.37,5.15c-4.25,7.41,1.09,12.29,5.32,9.38,0,0,3.33,7,10,5.3s7.71-7,7.71-7,5.89.41,6.06-4-4.16-8.3-4.16-8.3-.26-10.95-7.4-10.86S292.79,272.47,292.79,272.47Z" style="fill:#455a64"></path><polygon points="297.69 311.29 299.15 278.69 300.68 311.28 297.69 311.29" style="fill:#263238"></polygon><polygon points="298.72 290.94 294.13 281.8 299.47 289.51 298.72 290.94" style="fill:#263238"></polygon><path d="M84.75,272.47s-5.23-2.07-9.37,5.15C71.13,285,76.47,289.91,80.7,287c0,0,3.33,7,10,5.3s7.71-7,7.71-7,5.89.41,6.05-4-4.15-8.3-4.15-8.3-.27-10.95-7.4-10.86S84.75,272.47,84.75,272.47Z" style="fill:#455a64"></path><polygon points="89.65 311.29 91.11 278.69 92.64 311.28 89.65 311.29" style="fill:#263238"></polygon><polygon points="90.68 290.94 86.09 281.8 91.43 289.51 90.68 290.94" style="fill:#263238"></polygon><path d="M453.8,269.62s11.24,24.95-7.1,25-6.48-25.8-6.48-25.8-4.25-1.87.66-15.79S448,239.07,450,239.06c2.58,0,5,6,3.24,15.28C453.28,254.34,459.74,265.88,453.8,269.62Z" style="fill:#37474f"></path><polygon points="445.09 311.14 446.82 273.54 448.63 311.13 445.09 311.14" style="fill:#263238"></polygon><polygon points="446.12 289.3 452.77 281.51 447.56 290.33 446.12 289.3" style="fill:#263238"></polygon><path d="M343.44,269.62s11.23,24.95-7.11,25-6.48-25.8-6.48-25.8-4.24-1.87.66-15.79,7.11-13.93,9.16-13.94c2.58,0,5,6,3.24,15.28C342.91,254.34,349.37,265.88,343.44,269.62Z" style="fill:#37474f"></path><polygon points="334.72 311.14 336.45 273.54 338.26 311.13 334.72 311.14" style="fill:#263238"></polygon><polygon points="335.75 289.3 342.4 281.51 337.19 290.33 335.75 289.3" style="fill:#263238"></polygon><path d="M271.89,274.92s-9.79,21.87,6.27,21.85,5.63-22.61,5.63-22.61,3.71-1.64-.61-13.83-6.26-12.19-8.05-12.18c-2.26,0-4.36,5.28-2.81,13.38C272.32,261.53,266.68,271.65,271.89,274.92Z" style="fill:#37474f"></path><polygon points="279.6 311.27 278.02 278.34 276.5 311.27 279.6 311.27" style="fill:#263238"></polygon><polygon points="278.66 292.14 272.82 285.33 277.4 293.05 278.66 292.14" style="fill:#263238"></polygon><path d="M412.26,272.34s-5.23-2.07-9.37,5.15c-4.25,7.41,1.09,12.28,5.32,9.38,0,0,3.33,7,10,5.3s7.71-7,7.71-7,5.89.4,6.05-4-4.16-8.3-4.16-8.3-.26-11-7.39-10.86S412.26,272.34,412.26,272.34Z" style="fill:#455a64"></path><polygon points="417.16 311.15 418.62 278.55 420.15 311.15 417.16 311.15" style="fill:#263238"></polygon><polygon points="418.17 290.77 413.6 281.67 419.07 289.36 418.17 290.77" style="fill:#263238"></polygon></g><g id="freepik--Floor--inject-17"><polygon points="42.29 315 94.21 314.75 146.14 314.66 250 314.5 353.86 314.66 405.79 314.75 457.71 315 405.79 315.24 353.86 315.33 250 315.49 146.14 315.33 94.21 315.24 42.29 315" style="fill:#263238"></polygon><rect x="45.58" y="309.33" width="408.85" height="5.83" style="fill:#c7c7c7"></rect><path d="M74.24,309.33a9.09,9.09,0,0,1,0,5.83,8,8,0,0,1-.49-2.91A8.26,8.26,0,0,1,74.24,309.33Z" style="fill:#263238"></path><path d="M106.2,309.33a8.25,8.25,0,0,1,.48,2.92,8,8,0,0,1-.48,2.91,7.81,7.81,0,0,1-.49-2.91A8,8,0,0,1,106.2,309.33Z" style="fill:#263238"></path><path d="M138.15,309.33a8.92,8.92,0,0,1,0,5.83,9.09,9.09,0,0,1,0-5.83Z" style="fill:#263238"></path><path d="M170.11,309.33a9.09,9.09,0,0,1,0,5.83,8,8,0,0,1-.49-2.91A8.26,8.26,0,0,1,170.11,309.33Z" style="fill:#263238"></path><path d="M202.07,309.33a8.25,8.25,0,0,1,.48,2.92,8,8,0,0,1-.48,2.91,7.81,7.81,0,0,1-.49-2.91A8,8,0,0,1,202.07,309.33Z" style="fill:#263238"></path><path d="M234,309.33a8.92,8.92,0,0,1,0,5.83,9.09,9.09,0,0,1,0-5.83Z" style="fill:#263238"></path><path d="M266,309.33a9.09,9.09,0,0,1,0,5.83,8.92,8.92,0,0,1,0-5.83Z" style="fill:#263238"></path><path d="M297.93,309.33a8,8,0,0,1,.49,2.92,7.81,7.81,0,0,1-.49,2.91,8,8,0,0,1-.48-2.91A8.25,8.25,0,0,1,297.93,309.33Z" style="fill:#263238"></path><path d="M329.89,309.33a8.26,8.26,0,0,1,.49,2.92,8,8,0,0,1-.49,2.91,9.09,9.09,0,0,1,0-5.83Z" style="fill:#263238"></path><path d="M361.85,309.33a9.09,9.09,0,0,1,0,5.83,8.92,8.92,0,0,1,0-5.83Z" style="fill:#263238"></path><path d="M393.8,309.33a8,8,0,0,1,.49,2.92,7.81,7.81,0,0,1-.49,2.91,8,8,0,0,1-.48-2.91A8.25,8.25,0,0,1,393.8,309.33Z" style="fill:#263238"></path><path d="M425.76,309.33a8.26,8.26,0,0,1,.49,2.92,8,8,0,0,1-.49,2.91,9.09,9.09,0,0,1,0-5.83Z" style="fill:#263238"></path></g><g id="freepik--character-2--inject-17"><path d="M414.79,437.6c-2.08.68-61.56,0-63.81-1.47-.86-.55-1.26-9.22-1.45-19.7,0-2.27-.08-4.61-.09-7-.13-15.42.1-31.79.1-31.79l39.79.34-1.2,31.78-.26,7s22.66,10.44,24.95,12.31S416.88,436.93,414.79,437.6Z" style="fill:#ad6359"></path><path d="M414.79,437.6c-2.08.68-61.56,0-63.81-1.47-1-.67-1.42-13.33-1.54-26.68l38.69.33-.26,7s22.66,10.44,24.95,12.31S416.88,436.93,414.79,437.6Z" style="fill:#ebebeb"></path><path d="M414.79,437.6c-2.08.68-61.56,0-63.81-1.47-.86-.55-1.26-9.22-1.45-19.7l38.34.33s22.66,10.44,24.95,12.31S416.88,436.93,414.79,437.6Z" style="fill:#CC87EE"></path><path d="M414,435.22c-10-.36-50.2-.87-60.08-.47-.08,0-.08.06,0,.06,9.87.57,50.1.76,60.08.57C414.18,435.37,414.18,435.22,414,435.22Z" style="fill:#263238"></path><path d="M409,426.89a8,8,0,0,0-6,2.36,7.77,7.77,0,0,0-2.29,5.3c0,.06.11.06.12,0A9.27,9.27,0,0,1,409,427,.06.06,0,1,0,409,426.89Z" style="fill:#263238"></path><path d="M391.73,417.79c-4-.1-8.63,1.26-11.15,4.49-.1.13.08.26.2.2a55.28,55.28,0,0,1,11-4.19A.26.26,0,0,0,391.73,417.79Z" style="fill:#263238"></path><path d="M394.79,419c-4-.1-8.63,1.25-11.15,4.49-.09.12.09.26.21.2a55.08,55.08,0,0,1,11-4.2A.25.25,0,0,0,394.79,419Z" style="fill:#263238"></path><path d="M397.86,420.27c-4-.11-8.63,1.25-11.15,4.48-.1.13.08.27.2.21a54.93,54.93,0,0,1,11-4.2A.25.25,0,0,0,397.86,420.27Z" style="fill:#263238"></path><path d="M400.93,421.5c-4-.1-8.63,1.26-11.15,4.49-.1.13.08.26.2.2a55.93,55.93,0,0,1,11-4.2A.25.25,0,0,0,400.93,421.5Z" style="fill:#263238"></path><path d="M356.54,425.31c-4.48,0-4.55,6.92-.06,6.95S361,425.35,356.54,425.31Z" style="fill:#263238"></path><path d="M396.16,407.19c-2-1.69-4.56-.09-5.83,1.64A20.87,20.87,0,0,0,386.59,419c0,.09.06.12.12.12a.5.5,0,0,0,.72.33c2.86-1.94,6.16-3.65,8.35-6.4C397.05,411.43,398.06,408.8,396.16,407.19Zm-5,8.43c-1.39,1-2.81,1.89-4.16,2.93a63.13,63.13,0,0,1,2.32-5.89,21.14,21.14,0,0,1,1.49-2.67c.88-1.31,4.83-4.6,5.18-.25C396.19,412.13,392.82,414.45,391.17,415.62Z" style="fill:#263238"></path><path d="M376.66,420.36c3.47.57,7.06-.38,10.48-.87a.48.48,0,0,0,.31-.72.11.11,0,0,0,0-.17,20.9,20.9,0,0,0-9.59-5c-2.1-.43-5.08.1-5.42,2.7S374.63,420,376.66,420.36Zm-2.38-2.3c-2.66-3.46,2.48-3.67,4-3.3a23,23,0,0,1,2.9,1c2,.78,3.79,1.83,5.67,2.8-1.7.14-3.37.42-5.05.62C379.79,419.41,375.74,420,374.28,418.06Z" style="fill:#263238"></path><path d="M337.32,206s8.95,100.66,10.4,108.34c.34,1.75.55,11.26.69,23.49.31,26.68.12,74.81.12,74.81h42s-1.24-83.38-3.1-98.73S373.68,206,373.68,206Z" style="fill:#455a64"></path><path d="M388.63,405.3c-6.56-.14-4.67-.19-11.23-.25-3.2,0-24.28-.22-27.27.28a.07.07,0,0,0,0,.13c3,.5,24.07.32,27.27.29,6.56-.07,4.67-.12,11.23-.26A.1.1,0,0,0,388.63,405.3Z" style="fill:#263238"></path><path d="M356.51,357.63q-.08-9.13-.14-18.27c0-5.89,0-11.8-.31-17.69-.57-11.94-3-23.67-4.71-35.47s-3.16-23.65-4.46-35.51c-1.46-13.3-2.75-26.62-4.12-39.93,0-.09-.15-.09-.14,0,2,23.77,4.19,47.54,7.48,71.16q1.23,8.82,2.68,17.6c1,5.93,2,11.86,2.42,17.85s.54,11.75.6,17.63l.18,18.26c.13,13.52.26,34.33.39,47.85,0,.26.41.25.41,0C356.69,389,356.6,369.69,356.51,357.63Z" style="fill:#263238"></path><path d="M328.47,206s17.8,100.66,19.25,108.34c.34,1.75.55,11.26.69,23.49v0l20-131.87Z" style="fill:#263238"></path><path d="M314.52,442c-2.14-.46-53.39-30.64-54.62-33-.47-.9,3.49-8.62,8.54-17.81,1.09-2,2.23-4,3.4-6.1,7.56-13.44,15.9-27.53,15.9-27.53l34.34,20.09-16.85,27-3.69,5.92s14.46,20.33,15.52,23.09S316.67,442.49,314.52,442Z" style="fill:#ad6359"></path><path d="M314.52,442c-2.14-.46-53.39-30.64-54.62-33-.57-1.1,5.4-12.27,11.94-23.91l33.39,19.54-3.69,5.92s14.46,20.33,15.52,23.09S316.67,442.49,314.52,442Z" style="fill:#ebebeb"></path><path d="M314.52,442c-2.14-.46-53.39-30.64-54.62-33-.47-.9,3.49-8.62,8.54-17.81l33.1,19.36s14.46,20.33,15.52,23.09S316.67,442.49,314.52,442Z" style="fill:#CC87EE"></path><path d="M315,439.55c-8.47-5.27-43.12-25.72-51.89-30.29-.07,0-.1,0,0,.05,8.28,5.41,43.09,25.59,51.83,30.38C315.1,439.79,315.18,439.66,315,439.55Z" style="fill:#263238"></path><path d="M314.85,429.87a8,8,0,0,0-6.37-.93,7.77,7.77,0,0,0-4.63,3.46c0,.05.07.1.11.06A9.24,9.24,0,0,1,314.79,430C314.86,430,314.92,429.91,314.85,429.87Z" style="fill:#263238"></path><path d="M304.37,413.38c-3.41-2.08-8.11-3.21-11.91-1.66-.14.06,0,.27.08.28a55.35,55.35,0,0,1,11.64,1.83A.25.25,0,0,0,304.37,413.38Z" style="fill:#263238"></path><path d="M306.42,416c-3.42-2.07-8.12-3.2-11.91-1.65-.15.06-.06.27.07.28a55.44,55.44,0,0,1,11.65,1.83A.25.25,0,0,0,306.42,416Z" style="fill:#263238"></path><path d="M308.46,418.57c-3.41-2.07-8.11-3.2-11.9-1.65-.15.06-.06.27.07.28A54.71,54.71,0,0,1,308.27,419,.25.25,0,0,0,308.46,418.57Z" style="fill:#263238"></path><path d="M310.51,421.17c-3.41-2.07-8.12-3.21-11.91-1.65-.15.06-.06.27.07.27a55.35,55.35,0,0,1,11.65,1.84A.25.25,0,0,0,310.51,421.17Z" style="fill:#263238"></path><path d="M270.1,402.39c-3.86-2.26-7.38,3.74-3.51,6S274,404.65,270.1,402.39Z" style="fill:#263238"></path><path d="M313.49,406.39c-.89-2.47-3.91-2.35-5.87-1.48a20.83,20.83,0,0,0-8.3,6.95.1.1,0,0,0,.05.16.48.48,0,0,0,.45.64c3.45-.25,7.16-.09,10.43-1.39C312.15,410.51,314.33,408.72,313.49,406.39ZM305,411.21c-1.69.17-3.38.25-5.07.48a60.72,60.72,0,0,1,4.94-4,22.49,22.49,0,0,1,2.62-1.58c1.42-.69,6.48-1.58,4.62,2.36C311.06,410.69,307,411,305,411.21Z" style="fill:#263238"></path><path d="M290,408.1c2.73,2.23,6.32,3.19,9.53,4.47.33.13.6-.18.62-.48a.1.1,0,0,0,.1-.14,20.91,20.91,0,0,0-5.83-9.12c-1.6-1.42-4.45-2.44-6-.35S288.43,406.81,290,408.1Zm-.92-3.18c-.59-4.32,4-1.95,5.12-.86a22.16,22.16,0,0,1,2,2.3c1.32,1.66,2.38,3.48,3.52,5.25-1.53-.72-3.12-1.31-4.68-2C293.21,408.84,289.42,407.31,289.1,404.92Z" style="fill:#263238"></path><path d="M305.92,408.52l-38.48-23.78s44.52-63.69,44.73-69.35c.31-8.41,4.35-43.13,7.73-71.24,0,0-6.42-15.22,5.6-38.21h48.21s-3.23,21.88-8.76,35.75a65,65,0,0,0-10.72,4.89s-4.8,62.68-5,70.49C348.9,332.53,305.92,408.52,305.92,408.52Z" style="fill:#455a64"></path><path d="M308.28,399.64c-5.56-3.48-3.91-2.56-9.5-6C296,392,278.05,381,275.23,379.89a.07.07,0,0,0-.07.12c2.31,2,20.49,12.63,23.26,14.25,5.65,3.31,4.07,2.3,9.76,5.54C308.28,399.86,308.38,399.7,308.28,399.64Z" style="fill:#263238"></path><path d="M366.78,240.74a79.88,79.88,0,0,0-12.55,5.84c-.16.09-.05.34.12.26,4.23-1.81,8.54-3.55,12.66-5.6A.28.28,0,0,0,366.78,240.74Z" style="fill:#263238"></path><path d="M360.87,233.76c.42-2.52.76-5,1-7.59a68.47,68.47,0,0,0-.15-14.24.12.12,0,0,0-.24,0,131.8,131.8,0,0,1-1.15,19.65c-.48,3.13-2.05,7.84,1.22,8.32s5.49-7.4,5.9-9.56a72.2,72.2,0,0,0,.7-18.63c0-.14-.26-.17-.26,0,0,5-.29,9.44-.71,14.13-.2,2.17-1.95,14.21-5.73,13.33-.63-.15-.95-.77-1.05-1.72a15,15,0,0,1,.5-3.69" style="fill:#263238"></path><path d="M361.52,239.49a19.84,19.84,0,0,0-.84,2.5,5.54,5.54,0,0,0-.36,2,.15.15,0,0,0,.26.05,7.11,7.11,0,0,0,.88-2c.29-.77.59-1.54.86-2.32A.43.43,0,0,0,361.52,239.49Z" style="fill:#263238"></path><path d="M331.17,209a43.69,43.69,0,0,0-3.61,7.94,48.45,48.45,0,0,0-2.14,8.45c-.28,1.42-.37,2.88-.53,4.32s-.17,2.9-.08,4.35a45.37,45.37,0,0,0,1,8.61v.1q-1.67,18.24-3.45,36.46t-3.6,36.45l-.11,1.14-.06.57a1.73,1.73,0,0,1-.12.62,17.4,17.4,0,0,1-1.11,2.12c-.77,1.33-1.57,2.63-2.36,3.93l-4.87,7.77c-3.27,5.15-6.61,10.26-9.94,15.38-6.64,10.23-13.42,20.39-20.21,30.53l19.66-30.89,9.77-15.48,4.82-7.77c.79-1.3,1.59-2.61,2.34-3.92.36-.64.78-1.37,1-1.93a1.49,1.49,0,0,0,.09-.5l.05-.57.11-1.13q1.74-18.22,3.6-36.43t3.73-36.41v.1a46,46,0,0,1-.92-8.75,42.94,42.94,0,0,1,.16-4.39c.19-1.45.31-2.91.62-4.35a48.18,48.18,0,0,1,2.33-8.44A44,44,0,0,1,331.17,209Z" style="fill:#263238"></path><path d="M361.1,161.07c19-.08,47.32-3.45,50.82-7.71,3.86-4.69,12.14-20.4,17.14-36.58.91-2.92-25.15-8.33-24.81-6.2,1,6.27-10.89,27.44-11.84,27.91-1.25.61-22.54,7.64-34.43,12.14C343.64,156.06,350.77,161.12,361.1,161.07Z" style="fill:#ad6359"></path><path d="M428.86,117.44c.48-1.42,5-12.85,4.68-19.44-.17-3.49-1.73-13-3.86-13.19-1.95-.14-2.17,2.58-2.17,2.58S426.76,83.14,424,83s-2.84,4.44-2.84,4.44-1.09-4.3-3.81-4.28-2.07,4.67-2.07,4.67-.81-4-3.05-3c-2.68,1.16-.35,8.32-.84,12.16-.11.87-3.53,17.49-3.53,17.49Z" style="fill:#ad6359"></path><path d="M415.2,87.9c1.7,5.27,1.53,7.87.18,13.15,0,.11.12.17.16.07,1.8-5.06,2.48-8.29-.09-13.32C415.32,87.55,415.12,87.65,415.2,87.9Z" style="fill:#263238"></path><path d="M421.06,87.48c1.3,5.63,1.14,8.46.13,14.1,0,.08.12.11.14,0,1.45-5.45,2.06-8.69,0-14.15C421.27,87.22,421,87.23,421.06,87.48Z" style="fill:#263238"></path><path d="M427.46,87.66c.85,5.54.82,8.64-.87,14a.11.11,0,0,0,.2.07,18.61,18.61,0,0,0,.84-14.07C427.53,87.31,427.4,87.31,427.46,87.66Z" style="fill:#263238"></path><path d="M403,117.79s-2.1-8.05-2.11-11.18,4.23-14.77,6.8-14c3.32,1,2.19,8.21,1.18,11.67,0,0,7.68,2.31,8,7.66S403,117.79,403,117.79Z" style="fill:#ad6359"></path><path d="M408.51,93.18c2.37,3.1.75,7.55,0,11a.32.32,0,0,0,.34.4c3.15,1.18,7.25,3.77,8.13,7.21a.08.08,0,0,0,.16,0c-.44-3.82-4.26-6.68-7.8-7.76.81-3.5,2.24-8-.82-10.82C408.53,93.14,408.5,93.16,408.51,93.18Z" style="fill:#263238"></path><path d="M376.4,143.39l10,20.9s-25.46-.93-32.88-3.32c-8.34-2.69-5.14-6.36,2.24-10.23S376.4,143.39,376.4,143.39Z" style="fill:#CC87EE"></path><path d="M373.1,145.6c.24.78,3.3,7.32,4,8.73s3.49,7.19,4.33,8.58a.06.06,0,0,0,.1,0c-.56-1.52-3.36-7.35-4-8.8s-3.85-7.86-4.3-8.51C373.16,145.49,373.08,145.55,373.1,145.6Z" style="fill:#263238"></path><path d="M382.27,164.12c-7.54-.38-23.2-1.36-28.76-3.15-5.8-1.87-6-4.22-3.12-6.79C358.23,156.64,373.23,161.31,382.27,164.12Z" style="opacity:0.1"></path><path d="M342.19,138.65a2.59,2.59,0,0,0,1.9,4.67,2.84,2.84,0,0,0,3.2,3.28,2.39,2.39,0,0,0,0,.92,2.59,2.59,0,0,0,4.57,1,2.58,2.58,0,0,0,3.06,1.73,2.62,2.62,0,0,0,1-.47c0,.08,0,.16,0,.23a2.6,2.6,0,0,0,4.93.41,2.59,2.59,0,0,0,4.84-.38,2.86,2.86,0,0,0,1.88.21,2.81,2.81,0,0,0,1.79-1.31,2.84,2.84,0,0,0,4.36-2.26,2.71,2.71,0,0,0,1,0,2.59,2.59,0,0,0,2-2.78,2.82,2.82,0,0,0,1.26,0,2.85,2.85,0,0,0,2.15-3.42,2.72,2.72,0,0,0-.37-.87,1.73,1.73,0,0,0,.45,0,2.59,2.59,0,0,0,2-3.11,2.52,2.52,0,0,0-.68-1.24,2.86,2.86,0,0,0,1.89-3.35,2.82,2.82,0,0,0-.77-1.37,2.85,2.85,0,0,0-.37-5,2.59,2.59,0,0,0-.89-3.74,2.84,2.84,0,0,0-2-4.66,2.64,2.64,0,0,0,0-1.25,2.59,2.59,0,0,0-2.77-2,2.79,2.79,0,0,0,0-1.22,2.86,2.86,0,0,0-3.43-2.14,2.55,2.55,0,0,0-.62.23,2.57,2.57,0,0,0-.07-.46,2.86,2.86,0,0,0-3.42-2.14,2.59,2.59,0,0,0-.67.26,2.47,2.47,0,0,0-.06-.81,2.87,2.87,0,0,0-3.44-2.15,2.84,2.84,0,0,0-1.81,1.34,2.84,2.84,0,0,0-4.44.41,2.6,2.6,0,0,0-4.75.4,2.59,2.59,0,0,0-4.14,1.81,2.81,2.81,0,0,0-2.27-.44,2.86,2.86,0,0,0-2.22,2.85,2.77,2.77,0,0,0-1,0,2.6,2.6,0,0,0-1.94,3.12,2.5,2.5,0,0,0,.37.85.45.45,0,0,0-.16,0,2.85,2.85,0,0,0-2.15,3.43,2.39,2.39,0,0,0,.31.77,2.38,2.38,0,0,0-.7.07,2.59,2.59,0,0,0-1.94,3.11,2.64,2.64,0,0,0,1.17,1.62,2.59,2.59,0,0,0,.34,4.12,2.85,2.85,0,0,0,1.1,5.3,2.57,2.57,0,0,0-.71,2.42A2.61,2.61,0,0,0,342.19,138.65Z" style="fill:#263238"></path><path d="M310.82,260.34l36.76.45c9.93.12,8.44-7.85,6.15-16.22s-5.66-21-14.53-21.15l-9.54-.12-9.55-.11c-8.88-.11-12.56,12.49-15.05,20.8S300.89,260.22,310.82,260.34Z" style="fill:#CC87EE"></path><path d="M340.62,223.46a.37.37,0,0,1,.37.38.38.38,0,0,1-.38.38.4.4,0,0,1-.38-.39A.37.37,0,0,1,340.62,223.46Zm-6.65.3a.37.37,0,0,0,.37.38.4.4,0,0,0,.39-.38.38.38,0,0,0-.76,0Zm-6.27-.08a.38.38,0,0,0,.38.38.37.37,0,0,0,.38-.37.38.38,0,1,0-.76,0Zm-6.26-.08a.37.37,0,0,0,.37.39.4.4,0,0,0,.39-.38.38.38,0,0,0-.38-.38A.37.37,0,0,0,321.44,223.6Zm25,8.36a.38.38,0,0,0,.76,0,.4.4,0,0,0-.38-.39A.38.38,0,0,0,346.4,232Zm-6.27-.08a.39.39,0,0,0,.38.39.38.38,0,0,0,.38-.38.37.37,0,0,0-.37-.38A.39.39,0,0,0,340.13,231.88Zm-6.26-.07a.37.37,0,0,0,.37.38.38.38,0,0,0,.39-.37.4.4,0,0,0-.38-.39A.38.38,0,0,0,333.87,231.81Zm-6.27-.08a.4.4,0,0,0,.38.39.38.38,0,0,0,.38-.38.37.37,0,0,0-.37-.38A.38.38,0,0,0,327.6,231.73Zm-6.26-.07a.37.37,0,0,0,.37.38.38.38,0,0,0,.39-.37.39.39,0,0,0-.38-.39A.38.38,0,0,0,321.34,231.66Zm-6.27-.08a.4.4,0,0,0,.38.39.38.38,0,0,0,.38-.38.37.37,0,0,0-.37-.38A.38.38,0,0,0,315.07,231.58Zm28.25-3.79a.38.38,0,0,0,.37.39.4.4,0,0,0,.39-.38.38.38,0,0,0-.38-.38A.37.37,0,0,0,343.32,227.79Zm-6.27-.07a.38.38,0,0,0,.38.38.37.37,0,0,0,.38-.37.38.38,0,0,0-.37-.39A.39.39,0,0,0,337.05,227.72Zm-6.26-.08a.38.38,0,0,0,.37.39.4.4,0,0,0,.39-.38.38.38,0,0,0-.38-.38A.37.37,0,0,0,330.79,227.64Zm-6.27-.07a.39.39,0,0,0,.38.38.38.38,0,0,0,.38-.38.37.37,0,0,0-.37-.38A.39.39,0,0,0,324.52,227.57Zm-6.26-.08a.37.37,0,0,0,.37.38.38.38,0,0,0,.39-.37.4.4,0,0,0-.38-.39A.38.38,0,0,0,318.26,227.49Zm-6.22.11a.38.38,0,0,0,.71-.17.38.38,0,0,0-.26-.37Q312.27,227.32,312,227.6ZM346.3,240a.4.4,0,0,0,.38.39.38.38,0,0,0,.38-.38.38.38,0,0,0-.76,0Zm-6.26-.07a.37.37,0,0,0,.37.38.38.38,0,1,0,0-.76A.38.38,0,0,0,340,239.94Zm-6.27-.08a.38.38,0,0,0,.38.38.37.37,0,0,0,.38-.37.38.38,0,0,0-.76,0Zm-6.26-.08a.37.37,0,0,0,.37.39.4.4,0,0,0,.39-.38.38.38,0,0,0-.76,0Zm-6.27-.07a.38.38,0,0,0,.38.38.37.37,0,0,0,.38-.37.38.38,0,1,0-.76,0Zm-6.26-.08a.37.37,0,0,0,.37.39.4.4,0,0,0,.39-.38.38.38,0,0,0-.38-.38A.37.37,0,0,0,315,239.63Zm-6.27-.07a.38.38,0,0,0,.38.38.37.37,0,0,0,.38-.37.38.38,0,1,0-.76,0Zm40.77-3.64a.4.4,0,0,0,.38.39.38.38,0,0,0,.38-.38.37.37,0,0,0-.37-.38A.38.38,0,0,0,349.48,235.92Zm-6.26-.08a.38.38,0,0,0,.37.39.39.39,0,0,0,.39-.38.38.38,0,0,0-.76,0Zm-6.27-.07a.38.38,0,0,0,.38.38.37.37,0,0,0,.38-.37.38.38,0,0,0-.37-.39A.4.4,0,0,0,337,235.77Zm-6.26-.08a.38.38,0,0,0,.37.39.39.39,0,0,0,.39-.38.38.38,0,0,0-.38-.38A.37.37,0,0,0,330.69,235.69Zm-6.27-.07a.38.38,0,0,0,.38.38.37.37,0,0,0,.38-.37.38.38,0,0,0-.37-.39A.4.4,0,0,0,324.42,235.62Zm-6.26-.08a.38.38,0,1,0,.76,0,.38.38,0,0,0-.38-.38A.37.37,0,0,0,318.16,235.54Zm-6.27-.07a.38.38,0,0,0,.38.38.38.38,0,0,0,0-.76A.4.4,0,0,0,311.89,235.47Zm40.58,12.67a.38.38,0,0,0,.76,0,.38.38,0,0,0-.38-.38A.37.37,0,0,0,352.47,248.14Zm-6.27-.08a.39.39,0,0,0,.38.39.38.38,0,0,0,.38-.38.37.37,0,0,0-.37-.38A.39.39,0,0,0,346.2,248.06Zm-6.26-.07a.38.38,0,0,0,.76,0,.4.4,0,0,0-.38-.39A.38.38,0,0,0,339.94,248Zm-6.27-.08a.4.4,0,0,0,.38.39.38.38,0,0,0,.38-.38.37.37,0,0,0-.37-.38A.39.39,0,0,0,333.67,247.91Zm-6.26-.07a.38.38,0,0,0,.76,0,.39.39,0,0,0-.38-.39A.38.38,0,0,0,327.41,247.84Zm-6.27-.08a.4.4,0,0,0,.38.39.38.38,0,0,0,.38-.38.37.37,0,0,0-.37-.38A.38.38,0,0,0,321.14,247.76Zm-6.26-.07a.38.38,0,0,0,.76,0,.39.39,0,0,0-.38-.39A.38.38,0,0,0,314.88,247.69Zm-6.27-.08a.38.38,0,0,0,.38.38.38.38,0,0,0,0-.75A.38.38,0,0,0,308.61,247.61ZM349.39,244a.38.38,0,0,0,.37.39.4.4,0,0,0,.39-.38.38.38,0,0,0-.38-.38A.37.37,0,0,0,349.39,244Zm-6.27-.07a.38.38,0,0,0,.38.38.37.37,0,0,0,.38-.37.38.38,0,0,0-.37-.39A.39.39,0,0,0,343.12,243.9Zm-6.26-.08a.38.38,0,0,0,.37.39.4.4,0,0,0,.39-.38.38.38,0,0,0-.38-.38A.37.37,0,0,0,336.86,243.82Zm-6.27-.07a.38.38,0,0,0,.38.38.37.37,0,0,0,.38-.37.38.38,0,0,0-.37-.39A.39.39,0,0,0,330.59,243.75Zm-6.26-.08a.37.37,0,0,0,.37.38.38.38,0,1,0,0-.75A.37.37,0,0,0,324.33,243.67Zm-6.27-.08a.39.39,0,0,0,.38.39.38.38,0,0,0,.38-.38.37.37,0,0,0-.37-.38A.39.39,0,0,0,318.06,243.59Zm-6.26-.07a.37.37,0,0,0,.37.38.38.38,0,0,0,.39-.37.4.4,0,0,0-.38-.39A.38.38,0,0,0,311.8,243.52Zm-6.27-.08a.39.39,0,0,0,.38.39.38.38,0,0,0,.38-.38.37.37,0,0,0-.37-.38A.38.38,0,0,0,305.53,243.44Zm46.84,12.75a.4.4,0,0,0,.38.39.38.38,0,0,0,.38-.38.37.37,0,0,0-.37-.38A.38.38,0,0,0,352.37,256.19Zm-6.26-.07a.37.37,0,0,0,.37.38.38.38,0,1,0,0-.76A.38.38,0,0,0,346.11,256.12Zm-6.27-.08a.4.4,0,0,0,.38.39.38.38,0,0,0,.38-.38.38.38,0,0,0-.76,0Zm-6.26-.07a.37.37,0,0,0,.37.38.39.39,0,0,0,.39-.37.39.39,0,0,0-.38-.39A.38.38,0,0,0,333.58,256Zm-6.27-.08a.38.38,0,0,0,.38.38.37.37,0,0,0,.38-.37.38.38,0,1,0-.76,0Zm-6.26-.08a.37.37,0,0,0,.37.39.4.4,0,0,0,.39-.38.38.38,0,0,0-.38-.38A.37.37,0,0,0,321.05,255.81Zm-6.27-.07a.38.38,0,0,0,.38.38.37.37,0,0,0,.38-.37.38.38,0,1,0-.76,0Zm-6.26-.08a.39.39,0,0,0,.37.39.4.4,0,0,0,.39-.38.38.38,0,0,0-.38-.38A.37.37,0,0,0,308.52,255.66ZM349.29,252a.37.37,0,0,0,.37.38.38.38,0,1,0,0-.76A.38.38,0,0,0,349.29,252ZM343,252a.38.38,0,0,0,.38.38.38.38,0,0,0,0-.75A.38.38,0,0,0,343,252Zm-6.26-.08a.38.38,0,0,0,.37.39.39.39,0,0,0,.39-.38.38.38,0,0,0-.38-.38A.37.37,0,0,0,336.76,251.87Zm-6.27-.07a.38.38,0,0,0,.38.38.37.37,0,0,0,.38-.37.38.38,0,0,0-.37-.39A.4.4,0,0,0,330.49,251.8Zm-6.26-.08a.39.39,0,0,0,.37.39.39.39,0,0,0,.39-.38.38.38,0,0,0-.38-.38A.37.37,0,0,0,324.23,251.72Zm-6.27-.07a.38.38,0,0,0,.38.38.38.38,0,0,0,0-.76A.4.4,0,0,0,318,251.65Zm-6.26-.08a.4.4,0,0,0,.38.39.39.39,0,0,0,.38-.38.38.38,0,0,0-.38-.38A.37.37,0,0,0,311.7,251.57Zm-6.27-.07a.38.38,0,0,0,.38.38.38.38,0,0,0,0-.76A.4.4,0,0,0,305.43,251.5Zm43.76,8.58a.38.38,0,0,0,.38.38.37.37,0,0,0,.38-.37.38.38,0,1,0-.76,0Zm-6.26-.08a.38.38,0,0,0,.37.39.4.4,0,0,0,.39-.38.38.38,0,0,0-.38-.38A.37.37,0,0,0,342.93,260Zm-6.27-.07a.38.38,0,0,0,.38.38.37.37,0,0,0,.38-.37.38.38,0,0,0-.37-.39A.39.39,0,0,0,336.66,259.93Zm-6.26-.08a.38.38,0,0,0,.37.39.4.4,0,0,0,.39-.38.38.38,0,0,0-.38-.38A.37.37,0,0,0,330.4,259.85Zm-6.27-.07a.38.38,0,1,0,.39-.38A.4.4,0,0,0,324.13,259.78Zm-6.26-.08a.37.37,0,0,0,.37.38.38.38,0,1,0,0-.75A.37.37,0,0,0,317.87,259.7Zm-6.27-.08a.39.39,0,0,0,.38.39.38.38,0,0,0,.38-.38.37.37,0,0,0-.37-.38A.39.39,0,0,0,311.6,259.62Zm-5.8-.44a.82.82,0,0,0,.2.12A.37.37,0,0,0,305.8,259.18Z" style="fill:#fff"></path><path d="M336.71,227.77a3,3,0,1,0,3.08-3A3,3,0,0,0,336.71,227.77Z" style="opacity:0.1"></path><path d="M316.4,227.53a3,3,0,1,0,3.08-3A3,3,0,0,0,316.4,227.53Z" style="opacity:0.1"></path><path d="M337.69,227.79a2.07,2.07,0,1,0,2.09-2A2.06,2.06,0,0,0,337.69,227.79Z" style="fill:#263238"></path><path d="M317.38,227.54a2.07,2.07,0,1,0,2.09-2A2.07,2.07,0,0,0,317.38,227.54Z" style="fill:#263238"></path><path d="M320,227.53l-2-.07c1.44-42.28,12.35-70,21.89-74.66l.88,1.8C331.65,159,321.38,187.54,320,227.53Z" style="fill:#263238"></path><path d="M372.38,195.52l1.79,11.32-49.29-.1s1.42-36.38,15.21-50.48c6.89-7.06,14.72-6.28,19.57-1.06,1.23,1.32,15.72,19.16,17.09,26.83C377.93,188.79,372.38,195.52,372.38,195.52Z" style="fill:#CC87EE"></path><path d="M364.1,191.91a52.53,52.53,0,0,0-7.78,1.35c-1.27.33-2.52.73-3.76,1.15-.62.21-1.24.4-1.86.58a8.74,8.74,0,0,1-2,.4,0,0,0,1,0,0,.09,12.58,12.58,0,0,0,1.94,0,14.58,14.58,0,0,0,1.84-.36c1.29-.33,2.56-.72,3.85-1.06,2.59-.69,5.18-1.38,7.82-1.89C364.26,192.1,364.23,191.89,364.1,191.91Z" style="fill:#263238"></path><path d="M370.62,194.18a59.23,59.23,0,0,0-6.52-.26c-1.09,0-2.17.11-3.25.22l-1.55.19c-.57.08-1.13.23-1.69.3-.06,0-.06.1,0,.1.54,0,1.08,0,1.62,0l1.63-.06,3.25-.1c2.18-.1,4.34-.17,6.51-.18C370.74,194.36,370.73,194.19,370.62,194.18Z" style="fill:#263238"></path><path d="M348.86,155.8c.38.93,5.94,6.43,10.29,5.54,1.41-.3.15-8.1.15-8.1l0-.6.53-8.36-10.44-4.59-1.5-.59s0,2.29,0,5.15v.88c0,.42,0,.86,0,1.3s0,.65,0,1,0,.68,0,1A54.05,54.05,0,0,0,348.86,155.8Z" style="fill:#ad6359"></path><path d="M359.87,144.27l-.4,6.32c-4.06,1.27-8.54.42-11.3-.38-.05-.57-.09-1.16-.12-1.75,0-.35,0-.69,0-1s0-.68,0-1,0-.87,0-1.3v-.88c0-2.86,0-5.15,0-5.15l1.5.59Z" style="fill:#263238"></path><path d="M340.35,130.44c-3.23,14.35,5,17.9,8.09,18.6,2.81.63,12.45,2.41,17.15-11.53s-1-20-7.3-21.75S343.58,116.09,340.35,130.44Z" style="fill:#ad6359"></path><path d="M343,128.69c.34,0,.67,0,1,0a1.68,1.68,0,0,0,1-.24.53.53,0,0,0,.1-.63,1.27,1.27,0,0,0-1.21-.51,1.89,1.89,0,0,0-1.29.46A.56.56,0,0,0,343,128.69Z" style="fill:#263238"></path><path d="M352.83,130.07c-.33-.1-.62-.24-.94-.37a1.62,1.62,0,0,1-.89-.57.52.52,0,0,1,.1-.63,1.3,1.3,0,0,1,1.31-.08,1.87,1.87,0,0,1,1.07.86C353.74,129.7,353.27,130.19,352.83,130.07Z" style="fill:#263238"></path><path d="M350.28,132.6s.07.06.06.1c-.22,1-.31,2.13.52,2.63,0,0,0,.06,0,0C349.78,135,349.91,133.49,350.28,132.6Z" style="fill:#263238"></path><path d="M351.35,131.74c1.61.18,1.12,3.38-.36,3.21S350,131.58,351.35,131.74Z" style="fill:#263238"></path><path d="M352,132c.26.22.48.58.81.67s.73-.19,1-.48c0,0,.06,0,0,.05-.08.61-.41,1.2-1.08,1.2s-1-.62-1-1.26C351.73,132.06,351.85,131.91,352,132Z" style="fill:#263238"></path><path d="M344.75,131.63s-.09,0-.09.07c-.13,1-.45,2.11-1.4,2.29,0,0,0,.06,0,.06C344.38,134.07,344.78,132.59,344.75,131.63Z" style="fill:#263238"></path><path d="M344,130.45c-1.57-.38-2.22,2.78-.77,3.14S345.35,130.77,344,130.45Z" style="fill:#263238"></path><path d="M343.33,130.52c-.28.12-.59.37-.89.33s-.54-.44-.7-.81c0,0,0,0-.05,0-.14.6-.07,1.27.49,1.51s1-.23,1.27-.8C343.5,130.66,343.45,130.48,343.33,130.52Z" style="fill:#263238"></path><path d="M349.15,141c-.29.18-.59.44-.95.39a2.72,2.72,0,0,1-1-.48s-.06,0-.05,0a1.37,1.37,0,0,0,1.12.81,1.07,1.07,0,0,0,1-.69C349.26,141.06,349.19,141,349.15,141Z" style="fill:#263238"></path><path d="M349.21,138.06a3.31,3.31,0,0,1-2.51.92,4.33,4.33,0,0,1-1.18-.23l-.22-.08-.2-.08a.26.26,0,0,1-.14-.26h0a.16.16,0,0,1,0-.09h0l0-.08c.16-.74.5-1.84.5-1.84-.3.07-1.82.36-1.7,0a49.82,49.82,0,0,1,3.63-9.51.09.09,0,0,1,.16.07c-.79,3-2.12,5.91-3,8.95a5.83,5.83,0,0,1,1.64-.09c.09.05-.7,2.11-.74,2.45,0,0,0,0,0,0a4.58,4.58,0,0,0,3.6-.23C349.23,137.91,349.29,138,349.21,138.06Z" style="fill:#263238"></path><path d="M345.87,138.61a3.81,3.81,0,0,0,1.28,1.49,1.67,1.67,0,0,0,1,.28c.79,0,.95-.72.94-1.34a4,4,0,0,0-.15-1A5,5,0,0,1,345.87,138.61Z" style="fill:#263238"></path><path d="M347.15,140.1a1.67,1.67,0,0,0,1,.28c.79,0,.95-.72.94-1.34A1.81,1.81,0,0,0,347.15,140.1Z" style="fill:#ff98b9"></path><path d="M351.79,117.72a6.43,6.43,0,0,0-.39,3.79c1.05,3.48,5.09,3.22,6.24,4.7s.25,3.82,1.2,5.2c1.32,1.9,3.55,1.58,3.64,2.74s.29,4.85,1.66,5.52,11.52-22.08-7.28-24.17c0,0-2.4-1.44-6.69,0-4.72,1.54-7.73,8.47-7.73,8.47l.84-.55c1-.66,1.48-1.34,2.22-1.75,1.16-.66,1.68-.26,2.88-.89A12.4,12.4,0,0,0,351.79,117.72Z" style="fill:#263238"></path><path d="M352.23,116.73a12.51,12.51,0,0,0-1,2.77,5.27,5.27,0,0,0,0,2.84,3.89,3.89,0,0,0,1.89,2c.84.47,1.8.71,2.7,1.24a2.81,2.81,0,0,1,1.11,1.13,3.75,3.75,0,0,1,.33,1.52,5.24,5.24,0,0,0,.65,2.74,3.25,3.25,0,0,0,2.34,1.43,7.14,7.14,0,0,1,2.88.59,6.89,6.89,0,0,0-2.9-.36,3.61,3.61,0,0,1-2.62-1.45,5.32,5.32,0,0,1-.77-2.92,3.43,3.43,0,0,0-.31-1.35,2.45,2.45,0,0,0-.95-.94c-.8-.49-1.78-.75-2.67-1.25a5.24,5.24,0,0,1-1.22-.94,3.06,3.06,0,0,1-.81-1.32,5.58,5.58,0,0,1,.15-3A12.64,12.64,0,0,1,352.23,116.73Z" style="fill:#263238"></path><path d="M351.74,117.52a10,10,0,0,1-1.29,2.44,4.86,4.86,0,0,1-2.19,1.78,7.2,7.2,0,0,1-1.37.3,2.34,2.34,0,0,0-1.11.52,7,7,0,0,1-1,1,3,3,0,0,1-1.29.51,3.36,3.36,0,0,0,1.14-.68,7.53,7.53,0,0,0,.86-1.05,2.44,2.44,0,0,1,1.29-.71,6.77,6.77,0,0,0,1.29-.31,5.08,5.08,0,0,0,2.06-1.57A18.5,18.5,0,0,0,351.74,117.52Z" style="fill:#263238"></path><path d="M362.38,136.06s3.8-4.12,5.71-2.7-1.38,7.68-3.92,8.26a2.5,2.5,0,0,1-3.13-1.78Z" style="fill:#ad6359"></path><path d="M367.1,135.13s0,.06,0,.07a6.25,6.25,0,0,0-3.75,3.46,1.37,1.37,0,0,1,2.08-.1s0,.1-.06.09a1.53,1.53,0,0,0-1.74.3,7.86,7.86,0,0,0-1,1.24c-.1.14-.36,0-.28-.14l0,0C362.65,137.84,364.75,135,367.1,135.13Z" style="fill:#263238"></path><path d="M362.59,140.72a.72.72,0,1,0,1.43.21.72.72,0,0,0-1.43-.21Z" style="fill:#fff"></path><path d="M337.47,158.46c-18.91,13.27-38.28,40.41-35.79,48,2.76,8.44,24.1-7.18,24.26-8.52.12-1,10.72-18,18.49-34C351.6,149.19,342.15,155.18,337.47,158.46Z" style="fill:#ad6359"></path><path d="M337,183.84l-21.94-7.45s18.45-17.57,25.34-21.21c7.75-4.09,8.15.77,5.76,8.75S337,183.84,337,183.84Z" style="fill:#CC87EE"></path><path d="M337.76,179.93c-.72-.37-7.54-2.75-9-3.23s-7.58-2.53-9.16-2.9a.06.06,0,0,0,0,.11c1.48.66,7.61,2.73,9.12,3.26s8.31,2.73,9.09,2.87C337.8,180.05,337.81,180,337.76,179.93Z" style="fill:#263238"></path><path d="M334.36,182.93c.92.22,1.84.47,2.74.72l-.24.09,3.74-7.24,1.9-3.6c.63-1.2,1.26-2.4,1.94-3.59a61.59,61.59,0,0,1-3.19,7.53,72.08,72.08,0,0,1-4,7.1l-.09.15L337,184C336.1,183.68,335.23,183.32,334.36,182.93Z" style="fill:#263238"></path><path d="M341.8,174.92a14.48,14.48,0,0,1,1.26-1.42c.22-.22.43-.45.67-.66s.45-.43.71-.64a4,4,0,0,1-1,1.65A4.41,4.41,0,0,1,341.8,174.92Z" style="fill:#263238"></path><path d="M340.75,228l-2-.28c.06-.42,5.85-42.65,6.38-54.31.48-10.37-.52-17.4-2.65-18.81a1.56,1.56,0,0,0-1.71,0l-.88-1.8a3.52,3.52,0,0,1,3.68.08c3.61,2.37,3.93,12.5,3.56,20.57C346.61,185.2,340.81,227.52,340.75,228Z" style="fill:#263238"></path><path d="M301.46,204.92c.32,4.32,4.93,11.58,26.66,24.46,3,1.79,20.16-17.65,17.05-19.72-3.92-2.61-17.79-10-19.06-10.46C316.68,195.74,301.15,200.61,301.46,204.92Z" style="fill:#ad6359"></path><path d="M370.83,227.09a4,4,0,0,1-3.46,3,6,6,0,0,1,0,4.06c-.94,2.28-4.92,1.8-4.92,1.8a7.44,7.44,0,0,1-.67,4.29c-1.12,2.09-5.21,2.18-5.21,2.18a6.47,6.47,0,0,1-3,3.4c-3.73,1.82-9.11-1.52-12.56-3.62S329.79,231,328.12,229.38L342.59,208s16.89,4.13,20.59,7.16C366.3,217.74,371.48,224,370.83,227.09Z" style="fill:#ad6359"></path><path d="M367.42,229.67c-2.66-3.52-6.21-6-9.62-8.78a.07.07,0,1,0-.09.11c3.42,2.68,6.26,6,9.56,8.81C367.37,229.89,367.5,229.76,367.42,229.67Z" style="fill:#263238"></path><path d="M362.55,235.65a11,11,0,0,0-2.31-1.93c-.86-.62-1.73-1.23-2.62-1.83q-2.64-1.78-5.39-3.44c-.08,0-.17.06-.09.12q2.64,1.78,5.21,3.67l2.55,1.92a14.38,14.38,0,0,0,2.47,1.72C362.51,235.94,362.65,235.76,362.55,235.65Z" style="fill:#263238"></path><path d="M356.5,242.4a8.13,8.13,0,0,0-2.17-1.63c-.82-.52-1.64-1.05-2.45-1.59-1.62-1.07-3.24-2.14-4.82-3.27-.08-.06-.18.06-.1.12,1.61,1.15,3.19,2.33,4.81,3.47l2.38,1.66a7.56,7.56,0,0,0,2.3,1.32S356.52,242.43,356.5,242.4Z" style="fill:#263238"></path><path d="M342.59,208c-2-1.05-4.07-2.15-6.1-3.24s-4-2.2-6.09-3.22a28.75,28.75,0,0,0-6.28-2.64,61,61,0,0,0-6.73-1.46,36.22,36.22,0,0,1,6.87.9,27.2,27.2,0,0,1,6.48,2.54c2,1.09,4.06,2.2,6,3.39S340.7,206.71,342.59,208Z" style="fill:#263238"></path></g><g id="freepik--character-1--inject-17"><path d="M196.41,417.87c-2.12.69-62.78-.08-65.07-1.58-.88-.55-1.28-9.4-1.46-20.1v-.34c0-2.2-.07-4.47-.08-6.77,0-.32,0-.64,0-.95l2.94-31.47,40.57.4-4,31.17-.05,1.23-.24,6.46,0,.66s23.09,10.68,25.43,12.59S198.54,417.19,196.41,417.87Z" style="fill:#ad6359"></path><path d="M196.41,417.87c-2.12.69-62.78-.08-65.07-1.58-.88-.55-1.28-9.4-1.46-20.1v-.34c0-2.2-.07-4.47-.08-6.77,0-.32,0-.64,0-.95l39.52.1-.05,1.23-.24,6.46,0,.66s23.09,10.68,25.43,12.59S198.54,417.19,196.41,417.87Z" style="fill:#ebebeb"></path><path d="M196.42,417.87c-1.1.35-17.57.32-33.68,0l-9.53-.22c-11.49-.32-21-.79-21.86-1.36s-1.28-9.15-1.45-19.65c0-.15,0-.3,0-.45s0-.23,0-.34h0l39.09.06v.67s23.08,10.67,25.42,12.59S198.54,417.19,196.42,417.87Z" style="fill:#CC87EE"></path><path d="M195.76,415.51c-10.22-.38-51.49-.95-61.62-.55-.08,0-.08.06,0,.06,10.12.6,51.39.84,61.62.66C196,415.68,196,415.52,195.76,415.51Z" style="fill:#263238"></path><path d="M173.37,396.08c-4-.8-8.94-.24-12.05,2.58-.12.11,0,.28.16.24a57,57,0,0,1,11.87-2.31A.26.26,0,0,0,173.37,396.08Z" style="fill:#263238"></path><path d="M176.25,397.87c-4-.8-8.94-.25-12.05,2.58-.12.11,0,.28.17.24a56.18,56.18,0,0,1,11.86-2.31A.26.26,0,0,0,176.25,397.87Z" style="fill:#263238"></path><path d="M179.13,399.66c-4-.8-8.94-.25-12,2.58-.12.11,0,.28.17.24a56.18,56.18,0,0,1,11.86-2.31A.26.26,0,0,0,179.13,399.66Z" style="fill:#263238"></path><path d="M162.74,417.87l-9.53-.22c-11.49-.32-21-.79-21.86-1.36s-1.28-9.15-1.45-19.65c0-.15,0-.3,0-.45s0-.23,0-.34h0C135.28,399.6,154.15,412.16,162.74,417.87Z" style="fill:#263238"></path><path d="M171.35,396.05H127.67s8.77-102,8.43-103.81c-.44-2.28-3-12.61-6.46-26.1-1.07-4.22-2.24-8.75-3.44-13.45-3.26-12.69-6.86-26.56-10-38.63-4.7-18.08-8.36-32.13-8.36-32.13h37s4.32,13.68,9.76,31.47c8.87,28.92,20.71,68.73,21.89,78.4C178.41,307.43,171.35,396.05,171.35,396.05Z" style="fill:#37474f"></path><path d="M169.41,388.6c-6.67-.14-4.75-.19-11.42-.26-3.27,0-24.73-.21-27.78.3-.06,0-.06.12,0,.13,3.06.51,24.51.31,27.78.28,6.67-.06,4.75-.12,11.42-.26A.1.1,0,1,0,169.41,388.6Z" style="fill:#263238"></path><path d="M144.32,286c-1.44-6.31-3.58-12.5-5.44-18.7q-5.69-18.88-11.44-37.76-2.86-9.44-5.77-18.87-1.45-4.76-2.94-9.51c-1-3.1-2.08-6.17-3-9.3-.36-1.27-.55-.58-.1,1,.92,3.26,1.84,6.52,2.79,9.77q2.82,9.66,5.68,19.3,5.69,19.19,11.47,38.36,2.88,9.62,5.79,19.22a79.16,79.16,0,0,1,2.36,9.3,43,43,0,0,1,.39,9.95c-.42,6.68-1.19,13.36-1.81,20s-1.23,13.36-1.85,20q-1.85,20-3.65,39.9c-.15,1.68-.3,3.37-.43,5.06,0,.56.81.52.87,0,1.44-13.15,2.54-26.35,3.77-39.52s2.45-26.2,3.67-39.31c.31-3.29.66-6.59.66-9.89A41.5,41.5,0,0,0,144.32,286Z" style="fill:#263238"></path><path d="M140.67,181.93c-2.57,19.89-7.46,57.17-11,84.22-8.36-32.77-21.79-84.21-21.79-84.21Z" style="fill:#263238"></path><path d="M149.35,418.47c-2.13.69-62.79.14-65.08-1.35-.88-.55-1.32-9.39-1.53-20.09,0-.11,0-.23,0-.34,0-2.2-.09-4.47-.1-6.78,0-.31,0-.63,0-.94-.15-15.45,1-31.47,1-31.47l39.65.25-1.1,31.17,0,1.24-.22,6.45,0,.66s23.12,10.6,25.47,12.5S151.47,417.78,149.35,418.47Z" style="fill:#ad6359"></path><path d="M149.35,418.47c-2.13.69-62.79.14-65.08-1.35-.88-.55-1.32-9.39-1.53-20.09,0-.11,0-.23,0-.34,0-2.2-.09-4.47-.1-6.78,0-.31,0-.63,0-.94l39.51-.05,0,1.24-.22,6.45,0,.66s23.12,10.6,25.47,12.5S151.47,417.78,149.35,418.47Z" style="fill:#ebebeb"></path><path d="M149.35,418.47c-2.13.69-62.79.14-65.08-1.35-.88-.55-1.32-9.39-1.53-20.09,0-.11,0-.23,0-.34l39.14-.08,0,.66s23.12,10.6,25.47,12.5S151.47,417.78,149.35,418.47Z" style="fill:#CC87EE"></path><path d="M148.68,416.11c-10.22-.34-51.48-.77-61.62-.33-.08,0-.08.06,0,.06,10.13.57,51.39.65,61.62.44C148.9,416.27,148.9,416.12,148.68,416.11Z" style="fill:#263238"></path><path d="M126.22,396.76c-4-.79-8.94-.21-12,2.63-.12.11,0,.28.17.24a56.18,56.18,0,0,1,11.85-2.36A.26.26,0,0,0,126.22,396.76Z" style="fill:#263238"></path><path d="M129.11,398.54c-4-.79-8.94-.22-12,2.62-.12.11,0,.28.17.24a56.8,56.8,0,0,1,11.85-2.35A.26.26,0,0,0,129.11,398.54Z" style="fill:#263238"></path><path d="M132,400.32c-4-.79-8.94-.22-12,2.62-.12.11,0,.28.17.24A56.18,56.18,0,0,1,132,400.82.25.25,0,0,0,132,400.32Z" style="fill:#263238"></path><path d="M143.67,181.93s-.85,17.72-4.9,31.75c-.32,1.16-.68,2.3-1.06,3.39A65.61,65.61,0,0,0,127,222.56s-.42,14.25-.84,30.14c-.47,17.77-1,37.59-.86,41.8.38,15.72-1.94,102.2-1.94,102.2l-43.68.19s7.88-96.58,7.82-102.34c-.08-9.26,2.11-50.19,3.8-80,1-18.39,1.88-32.57,1.88-32.57Z" style="fill:#37474f"></path><path d="M121.9,388.93c-6.67-.11-4.75-.17-11.43-.2-3.26,0-24.72-.11-27.77.41a.07.07,0,0,0,0,.13c3,.49,24.51.21,27.78.17,6.67-.1,4.75-.14,11.42-.31A.1.1,0,0,0,121.9,388.93Z" style="fill:#263238"></path><path d="M96.89,188.27c-.79,24.37-1.64,48.74-2.72,73.09s-2.56,48.87-4.6,73.25c-1.14,13.63-2.21,32.79-3.68,46.38,0,.09.13.12.14,0,3.18-24.18,4.94-54.06,6.5-78.39s2.61-48.68,3.44-73c.46-13.77.82-27.56,1.23-41.33C97.2,188.06,96.9,188.08,96.89,188.27Z" style="fill:#263238"></path><path d="M139.53,216A80.25,80.25,0,0,0,127,222.56a.15.15,0,0,0,.14.26c4.21-2,8.51-4,12.6-6.3A.28.28,0,0,0,139.53,216Z" style="fill:#263238"></path><path d="M139.77,201c-.29,1.55-.66,3.09-1,4.63s-.54,2.93-.93,4.36a7.47,7.47,0,0,1-2,3.65c-.57.53-1.2,1-1.8,1.48-.33.26-.68.51-1,.77,0-.2.08-.41.11-.62.11-.59.21-1.18.31-1.77.22-1.31.42-2.62.62-3.93.4-2.57.76-5.18,1.3-7.73,0-.1-.14-.14-.16,0-.65,2.53-1.35,5-1.91,7.58-.28,1.25-1.25,7.42-1.3,7.86s-.08.9-.09,1.35a5,5,0,0,0,0,1.39c0,.11.16.09.21,0h0a5,5,0,0,0,.39-1.34c.12-.44.22-.89.3-1.33,0-.17.05-.33.07-.5.61-.37,1.17-.86,1.74-1.27s1.24-.87,1.82-1.36a6.91,6.91,0,0,0,2.21-3.46,25.71,25.71,0,0,0,.73-4.44c.19-1.75.34-3.51.58-5.26C140,200.92,139.79,200.88,139.77,201Z" style="fill:#263238"></path><path d="M136.52,139c19,1.49,37.72,1.58,41.56-2.37,4.24-4.36,13.78-19.33,20.11-35,1.15-2.84-24.38-10.39-24.21-8.24.51,6.33-13.13,26.44-14.11,26.83-1.3.5-13.37,4.65-25.59,8.14C119.53,132.57,126.22,138.21,136.52,139Z" style="fill:#f7a9a0"></path><path d="M197.93,102.26c.6-1.38,6.06-12.4,6.28-19,.12-3.49-.64-13.13-2.75-13.46-1.94-.31-2.38,2.38-2.38,2.38s-.4-4.29-3.09-4.69-3.19,4.19-3.19,4.19-.74-4.38-3.45-4.58-2.45,4.48-2.45,4.48-.48-4-2.79-3.26c-2.77.93-1,8.27-1.85,12-.18.86-5,17.14-5,17.14Z" style="fill:#f7a9a0"></path><path d="M186.77,71.68c1.26,5.39.88,8-.91,13.13a.09.09,0,0,0,.16.07c2.2-4.89,3.15-8,1-13.28C186.92,71.35,186.71,71.42,186.77,71.68Z" style="fill:#263238"></path><path d="M192.65,71.75c.82,5.72.43,8.52-1,14.06a.07.07,0,0,0,.14,0c1.89-5.31,2.76-8.49,1.19-14.09C192.87,71.5,192.61,71.49,192.65,71.75Z" style="fill:#263238"></path><path d="M199,72.46c.4,5.59.11,8.68-2,13.87a.1.1,0,0,0,.18.09,18.63,18.63,0,0,0,2-14C199.1,72.12,199,72.1,199,72.46Z" style="fill:#263238"></path><path d="M172.13,100.45s-1.42-8.19-1.17-11.3,5.44-14.38,7.94-13.4c3.22,1.28,1.5,8.37.21,11.73,0,0,7.45,2.94,7.32,8.29S172.13,100.45,172.13,100.45Z" style="fill:#f7a9a0"></path><path d="M179.67,76.39c2.1,3.28.12,7.59-.9,11a.32.32,0,0,0,.31.42c3,1.44,6.92,4.36,7.51,7.86a.08.08,0,0,0,.16,0c-.12-3.85-3.69-7-7.13-8.38,1.09-3.43,2.9-7.83.08-10.86C179.68,76.35,179.66,76.37,179.67,76.39Z" style="fill:#263238"></path><path d="M148.09,120.51l5.61,21s-19.44-.36-24.93-3-6.53-7.23,2.78-11.81A86.9,86.9,0,0,1,148.09,120.51Z" style="fill:#CC87EE"></path><path d="M149.22,140.25c-.34-1.11-.75-2.2-1.07-3.32s-.63-2.22-.92-3.34c-.59-2.25-1.18-4.51-1.71-6.78-.3-1.28-.57-2.57-.8-3.86,0-.06.08-.1.1,0,1.51,4.37,2.61,8.89,3.69,13.39.31,1.3.52,2.62.8,3.93C149.32,140.28,149.24,140.3,149.22,140.25Z" style="fill:#263238"></path><path d="M150.15,196.6l-60.59,1.61c-.84-1,13.6-60.8,26.56-71.53,2.79-2.31,12.88-1.84,14.27-1.07,3.22,1.77,6.16,5.38,8.42,11.91C143.35,150.59,150.92,195.71,150.15,196.6Z" style="fill:#CC87EE"></path><path d="M133.54,128.07l-19.36.56a15.38,15.38,0,0,1,1.22-1.3l16.8-.49A13.72,13.72,0,0,1,133.54,128.07Zm2.54,3.39-24.47.72c-.26.41-.53.84-.79,1.29l26-.75C136.55,132.28,136.31,131.86,136.08,131.46Zm2.23,4.68-29.42.85c-.23.42-.44.86-.66,1.3l30.54-.89C138.62,137,138.47,136.54,138.31,136.14Zm1.53,4.69-33.25,1c-.19.43-.39.86-.57,1.3l34.17-1C140.07,141.66,140,141.24,139.84,140.83Zm1.23,4.71-36.52,1.06-.52,1.29,37.36-1.09C141.28,146.37,141.18,146,141.07,145.54Zm1.11,4.7-39.5,1.16c-.16.41-.32.84-.48,1.28l40.27-1.16C142.38,151.09,142.27,150.66,142.18,150.24Zm1,4.72L101,156.18c-.16.43-.31.86-.45,1.3l43-1.26Zm1,4.71L99.32,161c-.14.43-.28.86-.43,1.29l45.55-1.32C144.36,160.51,144.26,160.09,144.18,159.67Zm.93,4.71-47.33,1.37c-.13.43-.26.86-.4,1.29l48-1.39C145.27,165.23,145.19,164.81,145.11,164.38Zm.89,4.71-49.68,1.44-.39,1.3,50.3-1.46C146.16,169.94,146.08,169.52,146,169.09Zm.86,4.72-51.93,1.5c-.13.44-.25.87-.36,1.3l52.51-1.52C147,174.66,146.94,174.24,146.86,173.81Zm.82,4.72-54.07,1.56c-.13.44-.24.87-.35,1.29l54.63-1.58C147.83,179.38,147.76,179,147.68,178.53Zm.79,4.71-56.12,1.62c-.11.44-.22.87-.32,1.3l56.64-1.64C148.6,184.1,148.54,183.67,148.47,183.24Zm.73,4.72-58,1.68c-.11.45-.22.88-.31,1.3l58.52-1.71C149.34,188.82,149.27,188.4,149.2,188Zm.67,4.72-59.76,1.73c-.1.47-.19.91-.26,1.29L150,194C150,193.57,149.93,193.14,149.87,192.68Z" style="opacity:0.1"></path><path d="M111.25,130c-7.72,5.4-30.78,26.16-28.6,33.89,2.1,7.42,10.09,11.37,17.16,3.9,5.06-5.34,15.64-22.42,19.35-30.95C122.16,129.91,118.39,125,111.25,130Z" style="fill:#f7a9a0"></path><path d="M111.26,153.53l-18-12.29s15-12.41,20.82-14,9.67,1.22,5.6,10.76A86.89,86.89,0,0,1,111.26,153.53Z" style="fill:#CC87EE"></path><path d="M97.52,139.31c1,.62,2,1.18,3,1.81s1.93,1.27,2.88,1.93c1.92,1.32,3.84,2.65,5.73,4,1.06.78,2.1,1.58,3.12,2.41,0,0,0,.13-.06.09-4-2.32-7.77-5-11.52-7.73-1.09-.78-2.11-1.65-3.17-2.46C97.42,139.34,97.47,139.28,97.52,139.31Z" style="fill:#263238"></path><path d="M110.26,152.78a7.66,7.66,0,0,1,1.06.64,77.72,77.72,0,0,0,4-7.1c1.26-2.49,2.43-5,3.7-7.5,0-.07.16,0,.13.05-.55,1.42-1.14,2.82-1.76,4.2.44-.62.87-1.26,1.28-1.9,0,0,.07,0,.05,0a23.26,23.26,0,0,1-1.55,2.35c-.89,2.64-5.51,10.6-5.57,10.55a15.6,15.6,0,0,1-1.43-1.25A0,0,0,0,1,110.26,152.78Z" style="fill:#263238"></path><path d="M130.24,134.69c-3.27.35-8.75-5.7-10.4-9.92-.11-.29.67-3.08,1.46-6.51.47-2.09.94-4.42,1.22-6.58l13.13,5a34.82,34.82,0,0,0-2.37,8.13,4.62,4.62,0,0,0,0,.9s0,.1,0,.15C133.31,127.61,133.41,134.36,130.24,134.69Z" style="fill:#f7a9a0"></path><path d="M133.25,125.74a.74.74,0,0,1,0,.15,8.78,8.78,0,0,1-1.4-.1c-7.82-1.18-8.43-11-8.44-13.77l3.28,1.26,9,3.44a34.29,34.29,0,0,0-2.37,8.13A4.49,4.49,0,0,0,133.25,125.74Z" style="fill:#263238"></path><path d="M136.88,89.83s4.57,1.49,5.72,5.93.5,9.22.12,9.48S136.88,89.83,136.88,89.83Z" style="fill:#263238"></path><path d="M119.79,97.37c-1.32,5,1.86,19.19,5.5,22.23,5.28,4.42,13.65,4.53,17.33-1.75,3.57-6.09-.9-24.5-4.94-27.24C131.72,86.57,121.73,90,119.79,97.37Z" style="fill:#f7a9a0"></path><path d="M134.16,105.77s-.06.06,0,.1c.24.95.35,2.08-.45,2.59,0,0,0,.06,0,.05C134.71,108.13,134.54,106.63,134.16,105.77Z" style="fill:#263238"></path><path d="M133.09,105c-1.56.22-1,3.33.44,3.13S134.4,104.77,133.09,105Z" style="fill:#263238"></path><path d="M139.5,104.73s.09,0,.09.07c.14,1,.47,2.06,1.4,2.22,0,0,0,.06,0,.06C139.9,107.12,139.48,105.67,139.5,104.73Z" style="fill:#263238"></path><path d="M140.18,103.57c1.53-.39,2.21,2.69.79,3.06S138.9,103.9,140.18,103.57Z" style="fill:#263238"></path><path d="M131.61,103.76c.4-.19.75-.42,1.13-.64a2,2,0,0,0,1-.88.65.65,0,0,0-.24-.77,1.67,1.67,0,0,0-1.68.12,2.46,2.46,0,0,0-1.19,1.29A.71.71,0,0,0,131.61,103.76Z" style="fill:#263238"></path><path d="M141.11,101.79a11.2,11.2,0,0,1-1.3-.1,2.14,2.14,0,0,1-1.3-.36.66.66,0,0,1-.1-.8,1.65,1.65,0,0,1,1.57-.6,2.46,2.46,0,0,1,1.63.65A.72.72,0,0,1,141.11,101.79Z" style="fill:#263238"></path><path d="M134.59,114.71c.27.19.55.46.91.43a2.82,2.82,0,0,0,1-.43,0,0,0,0,1,0,0,1.32,1.32,0,0,1-1.13.74,1.05,1.05,0,0,1-.91-.72S134.55,114.69,134.59,114.71Z" style="fill:#263238"></path><path d="M135.08,111.65a3.37,3.37,0,0,0,2.45,1.07,4,4,0,0,0,1.19-.16,1.16,1.16,0,0,0,.22-.06l.21-.07a.25.25,0,0,0,.16-.25h0a.36.36,0,0,0,0-.1h0l0-.08c-.11-.75-.39-1.86-.39-1.86.3.09,1.79.46,1.7.08a49.91,49.91,0,0,0-3-9.71.09.09,0,0,0-.17.06c.61,3.08,1.76,6,2.43,9.12a6.16,6.16,0,0,0-1.64-.2c-.1,0,.57,2.15.59,2.49,0,0,0,0,0,0a4.62,4.62,0,0,1-3.58-.45C135.08,111.5,135,111.58,135.08,111.65Z" style="fill:#263238"></path><path d="M138.28,112.49a4,4,0,0,1-1.41,1.37,1.86,1.86,0,0,1-1.05.18c-.78-.12-.88-.82-.8-1.43a4.27,4.27,0,0,1,.24-1A5,5,0,0,0,138.28,112.49Z" style="fill:#263238"></path><path d="M136.87,113.86a1.86,1.86,0,0,1-1.05.18c-.78-.12-.88-.82-.8-1.43A1.8,1.8,0,0,1,136.87,113.86Z" style="fill:#ff98b9"></path><path d="M121.71,110.68c1.73.09,2.35-5.21,2.4-7.2,0-1.75-.74-7.08-.75-7.45s8.17,2.82,11.92.61,5.53-6.53,5.15-8.24-6.49-4.74-10.89-3.85-8.89,7.9-8.89,7.9a20.62,20.62,0,0,0,1.27-3.08,5,5,0,0,0-2.65,3.79s-.08-2.65-.3-2.64-1.87,2.71-1,4.22c0,0-2,2.82-1.6,5.28S119.67,110.58,121.71,110.68Z" style="fill:#263238"></path><path d="M137.94,95.07a14,14,0,0,1-3.48,2.33,9.33,9.33,0,0,1-4.54.41,14,14,0,0,1-4.4-1.3c-1.23-.57-2.38-1.35-3.65-1.82-.32-.12-.53.35-.3.56a14.91,14.91,0,0,0,8.71,3.54,8.6,8.6,0,0,0,7.68-3.7S138,95.05,137.94,95.07Z" style="fill:#263238"></path><path d="M123.3,108.89s-3.5-4.42-5.53-3.14.8,7.82,3.31,8.58a2.5,2.5,0,0,0,3.27-1.54Z" style="fill:#f7a9a0"></path><path d="M118.63,107.6a0,0,0,0,0,0,.07,6.31,6.31,0,0,1,3.5,3.76,1.38,1.38,0,0,0-2.09-.26.06.06,0,0,0,.06.09,1.54,1.54,0,0,1,1.72.44,7.45,7.45,0,0,1,.89,1.32c.09.15.37,0,.3-.13l0,0C122.89,110.66,121,107.68,118.63,107.6Z" style="fill:#263238"></path><path d="M126.63,102.46l5.45,23.88c.23.7-.13,1.26-.81,1.24l-10.68,2.12a2,2,0,0,1-1.67-1.31l-5.45-23.88c-.24-.7.13-1.26.81-1.24L125,101.16A2,2,0,0,1,126.63,102.46Z" style="fill:#a6a6a6"></path><path d="M125.71,102.59l5.45,23.88c.24.7-.12,1.26-.81,1.24l-10.68,2.11a2,2,0,0,1-1.67-1.3l-5.45-23.88c-.23-.7.13-1.26.81-1.24L124,101.29A2,2,0,0,1,125.71,102.59Z" style="fill:#dbdbdb"></path><path d="M122.33,103.6a1,1,0,1,0,1-1A1,1,0,0,0,122.33,103.6Z" style="fill:#263238"></path><path d="M96.38,169.24c-5.14,5.61-13.48-.44-13.73-5.36-.59-11.54,5.94-28.84,10.41-38.29,1.44-3,22.38,5.61,21.38,9.07C113.23,138.8,106.46,158.23,96.38,169.24Z" style="fill:#f7a9a0"></path><path d="M93.06,133a33.31,33.31,0,0,1,1.3-14.17c1.66-5,6.48-15.42,21.8-18.71,3.64-.78,9.37.69,3.9,4.12-3.89,2.43-7.1,2.81-9.1,4.63,0,0,7.07,2.74,7.71,6.41a68.49,68.49,0,0,1,1,9.71,13.74,13.74,0,0,1-1.81.35,18.11,18.11,0,0,1-3.41,9.33Z" style="fill:#f7a9a0"></path><path d="M96.7,114.32c2.37-1.4,7.45-4.27,12.42-5.18,5.52-1,16.43-1.45,17.13,2.64.51,3-3.64,3.53-3.64,3.53s4.55.76,4.42,3.57c-.11,2.56-3.35,2.78-3.35,2.78s2.68.94,2.09,3.38c-.7,2.94-6.2.49-9.49,2.84C115.55,128.41,96.7,114.32,96.7,114.32Z" style="fill:#f7a9a0"></path><path d="M109.21,115.16a22.32,22.32,0,0,1,13.33.06c.11,0,.14.14,0,.12a55.42,55.42,0,0,0-13.35-.13A0,0,0,0,1,109.21,115.16Z" style="fill:#263238"></path><path d="M110.39,120.7a25.08,25.08,0,0,1,13.3.86c.11,0,.13.14,0,.13a59.19,59.19,0,0,0-13.32-.94S110.36,120.71,110.39,120.7Z" style="fill:#263238"></path><path d="M99.51,165.23c.29-.49.58-1,.88-1.45.63-1,1.21-2,1.79-3,1.19-2,2.35-4,3.43-6.1A121.16,121.16,0,0,0,111.4,142c.46-1.21.9-2.42,1.35-3.62s.82-2.49,1.36-3.67c0-.06.27-.28.3,0,0,.17-.63,2.36-1,3.47s-.73,2.19-1.14,3.27q-1.22,3.25-2.64,6.44a106,106,0,0,1-6.55,12.43l-.12.19c0,.16-.07.33-.11.49a9.49,9.49,0,0,1-.4,1.17,11.82,11.82,0,0,1-1.16,2.16,0,0,0,0,1-.08,0,14.31,14.31,0,0,0,1-2.27c.1-.27.2-.53.31-.8-.52.8-1,1.6-1.58,2.39-.37.55-.74,1.08-1.14,1.61a19,19,0,0,1-1.16,1.52,0,0,0,0,1-.07-.05C98.85,166.21,99.2,165.73,99.51,165.23Z" style="fill:#263238"></path></g><g id="freepik--speech-bubble--inject-17"><path d="M285.13,100.17a20.89,20.89,0,0,0,33.35,16.77l10.24,2.62L324.46,110a20.9,20.9,0,1,0-39.33-9.85Z" style="fill:#fff"></path><path d="M285.13,100.17a21,21,0,0,0,3.17,10.92,22.72,22.72,0,0,0,1.67,2.35,25.9,25.9,0,0,0,2,2.06,19.26,19.26,0,0,0,4.73,3.21,20.44,20.44,0,0,0,5.42,1.8,21,21,0,0,0,2.84.29,18.07,18.07,0,0,0,2.85,0,20.59,20.59,0,0,0,10.46-4.09l.13-.1.17,0,10.26,2.53-.51.6-4.3-9.51-.1-.21.11-.22a20.48,20.48,0,0,0,.7-17.9,21.67,21.67,0,0,0-5.48-7.42,20.59,20.59,0,0,0-8.2-4.29,20.86,20.86,0,0,0-9.3-.29,20.72,20.72,0,0,0-16.62,20.28Zm0,0a21.07,21.07,0,0,1,8-16.53,21.15,21.15,0,0,1,31.74,26.61l0-.42,4.22,9.55.37.83-.88-.23-10.22-2.69.31-.06a21.09,21.09,0,0,1-10.85,4,17.67,17.67,0,0,1-2.91,0,19.9,19.9,0,0,1-2.88-.37,20.52,20.52,0,0,1-5.46-1.93,20.29,20.29,0,0,1-4.72-3.32,20.77,20.77,0,0,1-2-2.09,22.89,22.89,0,0,1-1.66-2.37A21.14,21.14,0,0,1,285.13,100.17Z" style="fill:#263238"></path><path d="M300.45,102.2a2,2,0,0,1-.2.92,1.94,1.94,0,0,1-.58.66,2.58,2.58,0,0,1-.85.41,3.77,3.77,0,0,1-1,.14h-4V96.08h4.41a1.55,1.55,0,0,1,.78.19,1.84,1.84,0,0,1,.59.48,2.12,2.12,0,0,1,.38.67,2.2,2.2,0,0,1-.17,1.9,1.82,1.82,0,0,1-.88.78,2.05,2.05,0,0,1,1.53,2.1Zm-5-4.75v2.08h2.14a.94.94,0,0,0,.69-.28,1,1,0,0,0,.29-.76,1.05,1.05,0,0,0-.27-.76.86.86,0,0,0-.64-.28Zm3.43,4.45a1.2,1.2,0,0,0-.08-.42,1,1,0,0,0-.2-.36.83.83,0,0,0-.3-.23.86.86,0,0,0-.39-.09h-2.46V103h2.38a1.16,1.16,0,0,0,.42-.08,1,1,0,0,0,.33-.23,1.08,1.08,0,0,0,.3-.76Z" style="fill:#263238"></path><path d="M302.3,96.08l2,4,2.07-4h1.73l-3,5.37v2.88h-1.6v-2.9l-3-5.35Z" style="fill:#263238"></path><path d="M314.77,102.92v1.41H309V96.08h5.62v1.41h-4v2h3.47v1.31h-3.47v2.14Z" style="fill:#263238"></path><path d="M316.17,101.23V96h1.56v5.23Zm0,3.1v-1.75h1.56v1.75Z" style="fill:#263238"></path></g></svg>